<?xml version="1.0" standalone="no"?>
<!DOCTYPE svg PUBLIC "-//W3C//DTD SVG 20010904//EN"
 "http://www.w3.org/TR/2001/REC-SVG-20010904/DTD/svg10.dtd">
<svg version="1.0" xmlns="http://www.w3.org/2000/svg"
 width="820.000000pt" height="811.000000pt" viewBox="0 0 820.000000 811.000000"
 preserveAspectRatio="xMidYMid meet">

<g transform="translate(0.000000,811.000000) scale(0.100000,-0.100000)"
fill="#000000" stroke="none">
<path d="M110 7770 l0 -340 -22 0 c-13 0 -38 -9 -56 -20 -31 -19 -32 -22 -32
-82 l0 -63 18 30 c29 46 39 51 162 79 113 26 220 34 220 18 0 -5 -11 -35 -24
-68 l-24 -59 -55 3 c-49 3 -58 1 -90 -27 -22 -20 -37 -44 -41 -66 -12 -61 37
-125 96 -125 28 0 28 -1 28 -62 l0 -61 -128 6 c-71 3 -136 9 -145 13 -14 5
-17 0 -17 -35 l0 -41 44 0 43 0 7 -46 c3 -26 6 -415 6 -865 l0 -819 -50 0 -50
0 0 -40 c0 -38 2 -40 29 -40 l30 0 3 -147 3 -148 -32 -36 c-24 -26 -33 -46
-33 -70 l0 -34 19 31 c37 61 49 64 230 64 91 0 204 5 253 11 49 7 91 10 93 7
3 -3 0 -36 -6 -74 -6 -38 -14 -123 -19 -189 -4 -66 -8 -122 -9 -123 -1 -2
-115 -2 -255 0 l-254 3 -27 25 -27 25 4 -30 c2 -20 11 -34 29 -42 l26 -13 8
-302 c7 -298 7 -304 -15 -358 -35 -85 -49 -167 -48 -270 0 -89 1 -92 9 -40 15
100 54 262 72 296 10 18 12 -68 12 -429 0 -249 4 -561 9 -694 l9 -243 -22 0
c-12 0 -37 7 -56 14 -34 15 -35 14 -35 -8 0 -17 7 -26 25 -30 22 -6 25 -11 25
-56 0 -47 -2 -50 -25 -50 -15 0 -25 -6 -25 -14 0 -13 57 -15 383 -18 376 -3
383 -3 434 -26 62 -29 63 -30 59 -201 -4 -141 -3 -141 -93 -167 -70 -20 -167
-30 -298 -29 l-109 0 -16 60 c-29 106 -94 204 -180 267 -59 44 -93 58 -138 58
l-37 0 0 -205 0 -205 43 0 c35 0 49 -6 73 -29 26 -26 29 -36 29 -90 0 -56 -2
-62 -28 -74 -15 -8 -46 -17 -70 -20 -53 -7 -58 -11 -44 -40 6 -13 13 -119 16
-267 4 -200 2 -250 -9 -270 -8 -14 -14 -45 -15 -70 l0 -45 25 53 c24 53 123
202 133 202 8 0 -6 -497 -17 -575 -5 -38 -13 -153 -17 -254 -7 -176 -6 -183
12 -179 17 3 20 18 26 183 3 99 11 216 18 260 6 44 13 202 17 350 l6 271 55
39 c30 22 60 45 66 50 10 10 112 65 119 65 2 0 7 -186 10 -414 l7 -414 -70
-70 c-78 -80 -100 -132 -100 -235 0 -50 2 -58 16 -53 9 3 18 6 20 6 2 0 4 26
4 58 0 31 4 72 9 89 23 80 179 217 260 229 25 3 91 15 146 26 55 11 163 24
240 29 77 5 201 19 275 31 223 35 220 35 303 -7 219 -111 243 -138 234 -263
-5 -72 -7 -77 -49 -119 -52 -54 -115 -93 -177 -109 l-46 -13 60 0 c38 0 72 6
92 17 43 23 133 110 144 140 5 13 9 60 9 104 0 127 -33 166 -211 255 -95 48
-88 15 -96 470 -3 220 -3 407 0 416 5 14 14 13 80 -7 76 -24 142 -63 189 -113
25 -27 27 -36 42 -223 9 -112 16 -305 16 -455 0 -143 3 -338 7 -432 5 -149 8
-173 22 -173 27 0 16 871 -15 1140 l-7 55 38 -35 c39 -38 65 -81 85 -145 6
-22 25 -72 41 -111 15 -39 33 -104 40 -145 6 -41 17 -89 25 -107 24 -60 58
-301 70 -502 7 -125 12 -150 31 -150 14 0 15 15 11 120 l-5 120 35 0 35 0 -8
-120 c-7 -117 -6 -120 14 -120 19 0 21 7 23 117 l3 118 48 3 c42 3 48 1 47
-15 -1 -10 -2 -64 -1 -120 l1 -103 39 0 39 0 -4 68 c-3 37 -6 93 -8 125 l-4
57 46 0 c26 0 113 12 195 26 81 15 150 24 152 22 7 -7 25 -179 25 -240 l0 -58
41 0 42 0 -6 83 c-4 45 -10 113 -13 151 l-7 69 71 -6 c57 -5 71 -3 76 9 15 40
0 487 -28 824 -9 102 -16 264 -17 360 -1 96 -4 236 -8 310 l-7 135 27 22 c61
51 74 168 44 400 -30 233 -80 333 -184 370 l-48 17 -7 134 c-3 75 -6 171 -6
214 0 44 -4 98 -10 121 -15 66 -18 187 -4 187 6 0 33 -16 60 -35 27 -20 83
-59 124 -88 83 -59 111 -99 136 -194 8 -32 24 -75 34 -96 39 -74 69 -231 90
-462 6 -71 17 -177 25 -235 19 -141 34 -309 40 -460 3 -69 12 -285 21 -480 8
-195 18 -579 21 -852 l6 -498 33 0 34 0 0 135 c0 147 -2 143 60 147 33 3 35 1
42 -37 4 -22 7 -86 7 -142 1 -99 2 -103 23 -103 21 0 21 1 14 145 l-6 146 87
-3 88 -3 6 -30 c4 -16 7 -81 8 -142 1 -108 2 -113 22 -113 21 0 22 1 15 144
l-8 144 49 -9 c26 -5 67 -14 91 -20 l42 -12 0 -123 c0 -119 1 -124 21 -124 19
0 20 5 17 115 l-3 116 25 -6 c14 -4 45 -17 70 -29 39 -19 45 -27 47 -57 8
-105 15 -139 29 -139 11 0 14 15 14 65 l0 66 61 -66 c34 -36 70 -65 80 -65 28
0 15 20 -84 122 -61 64 -99 95 -139 112 l-55 24 -6 198 c-4 108 -7 225 -7 259
l0 62 103 6 c56 3 129 13 161 22 32 8 60 14 62 12 2 -1 4 -186 5 -410 1 -377
2 -407 18 -407 16 0 18 30 19 413 l2 412 22 15 c60 40 61 44 54 158 -7 112
-21 152 -74 209 -27 28 -30 38 -31 105 -1 40 -6 143 -11 228 -14 225 -13 280
4 280 8 0 50 -34 94 -75 l80 -75 8 -257 c4 -142 7 -518 6 -835 l-2 -578 21 0
21 0 -4 783 c-3 430 -8 790 -13 800 -15 35 15 16 34 -22 43 -83 62 -159 91
-351 5 -30 13 -86 19 -125 6 -42 11 -270 11 -577 0 -445 2 -508 15 -508 12 0
15 15 15 74 0 41 3 77 8 79 4 3 230 6 502 8 l495 4 3 -82 3 -83 34 0 35 0 0
420 0 420 105 0 105 0 0 -298 c0 -165 3 -354 7 -420 l6 -122 35 0 35 0 -7 420
-7 421 148 -3 148 -3 3 -417 2 -418 35 0 35 0 0 420 0 420 131 0 130 0 -7 235
-7 235 25 0 25 0 6 -422 c4 -232 7 -526 7 -655 l0 -233 35 0 35 0 0 655 0 655
109 0 109 0 4 -212 c2 -117 1 -287 -3 -378 -4 -91 -10 -290 -14 -443 l-7 -277
60 0 59 0 7 223 c4 122 11 265 16 317 13 136 93 390 122 390 7 0 8 -158 3
-465 l-8 -465 22 0 c21 0 21 3 21 163 0 90 3 313 7 495 l6 332 73 50 c40 27
75 50 78 50 3 0 6 -120 6 -267 l0 -268 -41 -54 c-48 -64 -59 -89 -59 -142 0
-48 21 -83 60 -99 l30 -12 0 -124 c0 -117 1 -124 20 -124 19 0 20 7 20 120 l0
121 88 -3 c79 -3 87 -5 88 -23 1 -11 2 -64 3 -117 1 -93 2 -98 23 -98 21 0 21
2 14 120 l-7 120 81 0 80 0 0 -120 c0 -113 1 -120 20 -120 18 0 20 8 22 117
l3 117 58 -1 c31 -1 62 -2 67 -2 6 -1 10 -47 10 -116 0 -108 1 -115 20 -115
19 0 20 4 14 114 -5 80 -4 115 5 120 6 4 11 14 11 22 0 12 -40 14 -257 14
-274 0 -386 10 -415 37 -37 34 -18 126 40 189 26 29 35 31 117 38 50 4 184 7
300 7 l210 -1 -2 288 -1 287 -57 25 -56 25 5 60 c7 65 28 586 25 601 -5 28 4
34 46 34 33 0 45 4 45 14 0 12 -16 15 -77 15 -84 -1 -126 10 -140 36 -12 21 4
143 23 172 21 33 69 54 136 60 40 4 58 10 58 19 0 9 -12 14 -36 14 l-37 0 7
46 c3 26 6 85 6 131 l0 83 30 6 c17 4 30 13 30 21 0 13 -15 14 -106 8 l-106
-7 7 253 c4 140 8 274 10 299 2 25 4 285 4 578 l1 532 23 9 c12 5 30 18 41 30
17 18 18 34 14 163 -4 121 -8 151 -27 193 -13 28 -27 63 -32 78 -6 22 -14 393
-10 485 1 7 15 12 39 12 32 -1 41 -7 69 -43 18 -24 41 -63 52 -87 l21 -45 0
43 c0 47 -11 74 -43 109 -18 20 -18 23 -4 29 9 3 21 3 27 -1 5 -3 13 1 17 10
3 10 1 20 -5 24 -8 5 -12 195 -14 639 -2 508 -1 629 10 615 11 -15 12 -14 12
12 0 16 -7 37 -16 47 -14 15 -17 57 -22 298 l-5 280 23 0 23 0 -6 448 c-8 513
-13 622 -33 622 -11 0 -14 -19 -14 -81 l0 -82 -27 27 c-14 14 -36 29 -49 32
-18 5 -24 15 -29 55 -5 32 -12 49 -21 49 -10 0 -14 -14 -14 -50 l0 -50 -69 0
c-76 0 -81 4 -81 66 0 23 -5 34 -14 34 -11 0 -16 -14 -18 -47 l-3 -46 -48 0
c-57 1 -87 23 -87 65 0 21 -5 28 -20 28 -10 0 -23 -7 -28 -16 -7 -13 -13 -13
-56 1 -41 14 -93 16 -365 13 l-318 -3 -6 -170 c-4 -93 -7 -387 -7 -652 l0
-483 -136 0 -135 0 4 563 c2 309 7 573 9 587 3 14 15 45 27 70 27 59 27 90 1
90 -15 0 -20 -7 -20 -27 0 -45 -34 -89 -82 -107 -38 -15 -81 -16 -408 -8 -310
7 -371 11 -405 26 -56 24 -85 54 -85 88 0 21 -5 28 -20 28 -25 0 -28 -45 -5
-77 13 -19 16 -100 18 -587 1 -310 -1 -568 -6 -572 -11 -11 -166 16 -207 36
l-34 18 3 591 c3 535 1 591 -13 591 -16 0 -19 -151 -21 -1102 l0 -103 55 -27
c35 -17 84 -30 130 -35 l74 -8 8 -45 c5 -25 7 -65 6 -90 l-3 -45 -145 0 -145
0 -8 555 c-4 305 -10 633 -13 728 -6 163 -7 172 -26 172 -20 0 -20 -4 -12
-147 5 -82 9 -281 10 -443 1 -162 5 -424 9 -582 l7 -288 -109 0 -110 0 -7 103
c-3 56 -9 258 -13 448 l-6 346 73 12 c79 13 127 35 136 63 8 26 8 138 0 175
-5 23 -25 47 -68 83 -52 43 -66 50 -104 50 l-44 0 0 90 c0 83 -1 90 -20 90
-18 0 -20 -7 -20 -85 0 -100 -1 -101 -110 -106 l-75 -4 -3 98 c-2 89 -4 97
-22 97 -19 0 -20 -7 -20 -105 l0 -105 -59 0 c-32 0 -79 -3 -105 -6 l-46 -7 0
112 c0 104 -1 111 -20 111 -19 0 -20 -7 -20 -113 l0 -114 -39 -12 c-72 -21
-121 -107 -121 -209 0 -65 65 -122 137 -122 l30 0 7 -202 c15 -469 17 -563 12
-557 -3 3 -11 32 -17 65 -17 94 -93 225 -171 295 l-29 26 1 472 c0 390 -2 471
-13 471 -11 0 -15 -58 -20 -302 -4 -166 -7 -373 -7 -460 0 -88 -4 -158 -8
-156 -4 2 -44 16 -89 32 l-81 30 3 310 c3 318 11 398 50 499 19 47 19 47 -5
47 -13 0 -22 -9 -26 -25 -3 -14 -10 -25 -14 -25 -4 0 -5 11 -2 25 3 20 0 25
-17 25 -21 0 -21 -1 -22 -312 -2 -406 -6 -533 -19 -532 -5 1 -21 2 -34 3 l-24
1 -6 168 c-6 150 -17 357 -32 590 -5 73 -8 82 -26 82 -18 0 -19 -5 -13 -92 24
-352 33 -508 34 -615 l2 -123 -36 0 -35 0 0 159 c0 176 -20 363 -49 450 -11
31 -22 93 -26 139 -6 73 -9 82 -27 82 -15 0 -19 -6 -18 -27 3 -45 1 -48 -22
-26 -36 33 -84 53 -125 53 l-38 0 30 -16 c17 -8 34 -19 38 -23 8 -8 40 -361
33 -368 -2 -3 -9 5 -15 16 -14 26 -61 51 -96 51 l-25 0 0 170 c0 170 0 170
-22 170 l-23 0 3 -170 3 -170 -65 0 c-77 0 -72 -13 -82 198 l-6 142 -71 0
c-60 0 -75 -4 -104 -26 -37 -28 -62 -26 -70 6 -7 26 -43 27 -43 1 0 -17 -5
-18 -42 -14 -24 3 -51 10 -62 15 -19 11 -331 14 -356 4 -8 -3 -37 -10 -64 -16
-27 -6 -58 -17 -70 -25 -33 -24 -46 -18 -46 20 0 28 -4 35 -19 35 -17 0 -20
-8 -23 -52 l-3 -53 -50 -2 c-27 -1 -63 -6 -78 -12 -16 -6 -33 -9 -38 -5 -5 3
-9 32 -9 65 0 49 -3 59 -17 59 -15 0 -18 -10 -18 -67 l0 -68 -30 -3 c-60 -5
-121 -24 -157 -48 -21 -13 -40 -24 -43 -24 -3 0 -5 47 -5 105 0 98 -1 105 -20
105 -19 0 -20 -7 -20 -129 0 -95 -4 -138 -16 -167 -9 -22 -17 -71 -17 -115 -2
-68 1 -81 23 -111 l25 -33 -1 -370 c0 -203 -4 -396 -8 -428 -8 -58 -8 -58 -39
-55 -31 3 -31 4 -28 53 5 88 -19 898 -30 980 -16 129 -50 328 -60 353 -7 18
-16 22 -49 22 -38 0 -40 -1 -29 -21 6 -12 15 -45 19 -73 5 -28 16 -96 25 -151
29 -173 36 -359 41 -1140 7 -911 -6 -1444 -36 -1512 l-19 -43 -99 0 -100 0
-13 33 c-12 26 -14 171 -11 821 2 821 -7 1239 -44 1959 l-6 127 -40 0 -39 0 5
-52 c12 -101 32 -614 27 -661 -1 -5 -19 6 -41 23 -54 43 -115 60 -231 67 l-97
6 -7 308 -7 309 -40 0 -39 0 7 -291 7 -291 -38 26 c-21 15 -49 29 -62 32 -28
7 -188 -1 -219 -11 -21 -7 -21 -6 -29 264 l-7 271 -35 0 -34 0 3 -289 3 -289
-34 -24 c-28 -19 -56 -25 -160 -34 -69 -7 -134 -15 -143 -19 -17 -7 -18 13
-18 324 l0 331 -40 0 -40 0 0 -340z m3250 257 c0 -41 3 -115 6 -165 l7 -92
-62 0 -62 0 3 152 3 151 35 13 c68 24 70 22 70 -59z m3931 -57 c4 -58 10 -196
15 -308 l7 -203 -114 3 -114 3 -6 190 c-3 105 -10 241 -14 304 l-8 114 34 -5
c19 -2 48 -1 64 3 17 4 53 6 80 6 l50 -2 6 -105z m262 101 c24 -9 24 -10 30
-203 4 -106 10 -253 13 -325 4 -73 4 -133 1 -133 -4 0 -40 11 -81 25 -41 14
-95 25 -119 25 l-44 0 -7 143 c-4 78 -12 210 -18 294 -6 83 -8 159 -5 167 5
13 25 16 106 16 55 0 111 -4 124 -9z m-4864 -149 c0 -164 -9 -222 -36 -251
-11 -12 -25 -39 -32 -61 -6 -22 -18 -40 -25 -40 -7 0 -28 -3 -46 -6 l-32 -7 7
234 c4 129 9 236 11 238 8 8 139 39 147 34 4 -2 7 -66 6 -141z m199 27 l3
-115 -33 -16 c-18 -9 -56 -30 -84 -47 l-50 -29 -1 156 c-1 87 1 161 4 165 3 4
39 7 81 5 l77 -3 3 -116z m4136 82 c4 -20 9 -157 13 -304 l6 -268 -54 3 -54 3
0 285 c0 157 3 292 6 300 4 9 20 15 42 16 32 0 35 -2 41 -35z m-3966 12 l32
-5 0 -65 c0 -79 -21 -123 -60 -123 -14 0 -42 -3 -62 -6 l-38 -7 0 113 0 112
48 -6 c26 -4 62 -10 80 -13z m709 -25 c49 -54 75 -134 97 -293 17 -129 30
-781 16 -790 -5 -3 -31 -8 -58 -12 l-49 -5 -6 233 c-4 129 -7 297 -7 374 0
126 -8 253 -26 448 -7 72 0 81 33 45z m3923 -16 c127 -85 148 -105 155 -147
16 -91 26 -497 31 -1287 l6 -838 -121 0 -121 0 0 614 0 614 51 33 c64 41 89
80 89 139 0 78 -18 120 -80 184 l-58 61 -11 225 c-21 420 -21 440 -8 440 6 0
37 -17 67 -38z m-4540 18 c0 -5 -4 -10 -10 -10 -5 0 -10 5 -10 10 0 6 5 10 10
10 6 0 10 -4 10 -10z m57 -206 c-3 -3 -96 24 -105 31 -5 4 58 132 80 160 l23
30 3 -109 c1 -60 1 -110 -1 -112z m-717 68 c0 -66 -3 -167 -7 -226 -6 -100 -8
-109 -29 -118 -13 -6 -35 -28 -50 -49 -23 -34 -27 -51 -31 -132 -5 -107 4
-132 60 -162 l37 -20 -2 -125 -3 -124 -40 -7 c-22 -4 -53 -12 -68 -18 -23 -9
-29 -8 -34 5 -6 17 3 671 13 879 4 72 11 136 17 143 11 13 115 71 130 72 4 0
7 -53 7 -118z m5594 77 c32 -25 56 -69 56 -103 0 -38 -35 -56 -106 -56 l-62 0
-40 53 c-22 30 -63 68 -91 86 -28 18 -51 34 -51 36 0 1 60 3 134 4 121 1 136
-1 160 -20z m-2352 0 c11 -6 61 -14 111 -18 l91 -6 1 -220 c1 -121 6 -370 10
-552 l8 -333 -24 0 c-42 1 -219 27 -225 33 -11 11 -14 1107 -3 1107 6 0 20 -5
31 -11z m-3423 -36 c-53 -88 -58 -93 -100 -93 -103 0 -150 -157 -57 -189 25
-9 29 -15 26 -43 l-3 -33 -60 1 c-90 1 -130 12 -160 42 -26 26 -27 30 -21 100
6 80 20 114 63 153 45 42 85 58 188 73 54 8 100 17 103 20 3 3 14 6 24 6 19 0
19 -2 -3 -37z m4284 5 c-4 -13 -7 -272 -6 -575 l2 -553 -156 0 -155 0 6 418
c4 229 9 482 11 562 l4 145 135 5 c74 3 138 8 142 13 15 15 25 6 17 -15z
m-441 2 l110 0 -7 -552 c-5 -392 -11 -556 -19 -564 -7 -8 -30 -9 -71 -4 -33 5
-85 9 -116 9 l-57 1 -6 208 c-12 395 -18 882 -12 898 5 12 14 15 37 10 18 -3
81 -6 141 -6z m-945 -93 l53 -54 0 -71 c0 -89 -7 -95 -151 -122 -86 -17 -143
-20 -330 -19 -246 0 -289 6 -325 40 -47 44 -19 180 44 213 38 19 120 32 307
45 83 7 168 13 190 15 22 1 67 3 99 4 59 2 59 2 113 -51z m2776 -127 c42 -82
45 -91 62 -263 11 -110 15 -315 15 -914 l0 -772 -37 -10 c-21 -6 -52 -11 -69
-11 l-31 0 -7 92 c-3 50 -6 404 -6 787 0 383 -4 777 -10 876 -5 99 -11 219
-12 268 l-3 87 32 -37 c18 -21 47 -67 66 -103z m-5683 9 c-7 -63 -14 -278 -16
-478 l-4 -363 -44 -28 c-24 -16 -47 -26 -50 -23 -9 9 -8 111 5 383 15 341 31
479 65 549 29 61 44 84 51 77 2 -2 -1 -55 -7 -117z m745 59 c3 -18 5 -89 3
-158 l-3 -125 -35 0 -35 0 -8 145 c-4 80 -5 151 -2 157 2 7 20 13 39 13 32 0
36 -3 41 -32z m93 17 c22 -6 22 -9 22 -157 0 -133 -2 -149 -16 -144 -9 3 -27
6 -40 6 l-24 0 0 156 c0 170 -5 157 58 139z m-210 -152 l3 -150 -38 -6 c-20
-4 -38 -5 -39 -4 -1 1 -5 65 -9 143 l-7 141 33 16 c19 9 39 15 44 13 6 -1 11
-64 13 -153z m5237 -202 c4 -192 4 -354 0 -360 -10 -16 -62 -13 -69 4 -3 8 -5
72 -5 143 0 125 -13 285 -31 392 -5 30 -11 74 -14 98 -4 40 -3 42 22 42 15 0
38 7 52 14 14 8 28 14 31 15 4 1 10 -156 14 -348z m-4928 301 c21 -16 23 -28
29 -154 l7 -137 -41 21 -42 20 0 134 c0 143 3 150 47 116z m-429 -150 l4 -129
-27 -17 c-14 -9 -30 -27 -35 -39 -6 -14 -9 35 -9 138 l-1 159 28 22 c35 29 36
25 40 -134z m838 129 c28 -19 51 -57 59 -102 11 -60 -12 -69 -175 -69 l-135 0
-12 27 c-9 19 -10 30 -2 39 6 7 9 25 7 41 -2 21 -9 29 -28 31 -26 4 -62 30
-56 41 2 3 75 6 163 6 119 0 163 -4 179 -14z m-944 -356 c1 -162 3 -325 3
-362 l0 -68 -33 -3 -33 -3 3 328 c3 296 5 332 22 366 10 20 22 37 27 37 5 0
10 -132 11 -295z m640 213 c38 -94 45 -165 53 -513 3 -159 8 -304 11 -321 6
-31 5 -32 -36 -36 -22 -2 -45 -1 -49 2 -5 3 -10 217 -13 477 -2 259 -1 470 1
467 2 -2 17 -36 33 -76z m-2571 -83 c4 -33 7 -115 8 -182 l1 -123 -49 0 c-46
0 -49 1 -55 31 -3 17 -6 98 -6 180 l0 148 33 4 c60 8 62 6 68 -58z m88 56 c20
-13 30 -88 30 -240 l1 -133 -22 6 c-13 3 -29 6 -35 6 -10 0 -13 28 -14 103 0
56 -4 136 -8 177 -4 41 -6 78 -4 83 6 10 35 9 52 -2z m1249 -21 l65 0 -8 -97
c-4 -54 -10 -223 -14 -376 l-6 -277 -45 -40 c-37 -32 -53 -39 -88 -40 l-42 0
7 118 c5 64 8 253 8 420 l0 303 29 -5 c16 -3 58 -6 94 -6z m1623 -455 l4 -160
-61 -3 c-52 -2 -63 0 -68 15 -11 29 -25 264 -26 430 l0 151 53 7 c28 4 59 11
67 15 16 9 23 -85 31 -455z m1315 113 c5 -194 9 -396 9 -448 l0 -95 -84 -3
c-46 -2 -87 1 -92 5 -4 4 -10 205 -14 445 l-7 437 83 4 c46 1 87 4 90 5 4 1
10 -157 15 -350z m-4413 235 c4 -58 7 -136 7 -173 l0 -67 -52 -11 c-29 -5 -55
-9 -57 -7 -2 2 -4 72 -5 156 l-1 153 40 28 c22 15 45 27 51 28 7 0 13 -39 17
-107z m1967 52 c0 -47 -3 -55 -18 -55 -24 0 -45 -39 -40 -76 2 -20 12 -33 31
-42 22 -11 27 -20 27 -48 l0 -34 -75 0 c-63 0 -78 3 -96 21 -19 19 -21 30 -17
113 3 71 8 98 23 118 27 36 71 57 123 57 l42 1 0 -55z m2223 -165 c4 -118 8
-316 10 -440 l2 -225 -106 -3 -106 -3 -7 283 c-4 156 -11 352 -16 437 -5 85
-7 159 -4 163 3 5 54 7 112 6 l107 -3 8 -215z m-3873 160 c42 -83 46 -140 45
-630 l0 -465 -30 0 -30 0 -6 155 c-15 362 -14 463 5 492 25 39 32 104 14 126
-12 13 -17 56 -21 190 -3 94 -4 172 -1 172 2 0 13 -18 24 -40z m2593 -187 c4
-124 5 -228 3 -230 -2 -3 -13 4 -25 16 -11 11 -34 27 -50 36 l-31 16 0 118 c0
65 -3 152 -6 194 l-7 77 55 0 55 0 6 -227z m-329 157 c26 -9 28 -14 23 -46 -4
-20 -14 -45 -24 -56 -17 -19 -28 -20 -188 -15 -192 5 -249 19 -243 58 4 32 45
57 108 68 68 12 285 6 324 -9z m4240 -26 c62 -8 143 -50 203 -107 70 -66 83
-92 83 -166 0 -58 -1 -60 -46 -100 -25 -22 -67 -47 -92 -55 -50 -15 -321 -31
-542 -31 l-125 0 -3 225 c-1 123 0 231 3 238 4 11 50 12 242 7 131 -3 255 -8
277 -11z m-6237 -10 c91 -21 153 -67 184 -136 20 -46 23 -70 23 -188 l1 -135
-30 -14 c-19 -9 -75 -16 -157 -19 l-128 -5 0 62 c0 53 2 61 19 61 25 0 70 37
82 69 15 37 1 113 -25 146 -17 20 -35 30 -66 34 -44 6 -44 7 -66 68 -11 35
-19 65 -16 68 11 10 113 4 179 -11z m-733 -55 c12 -121 7 -215 -13 -251 -11
-18 -22 -52 -26 -75 -6 -37 -3 -45 18 -66 33 -30 35 -47 42 -339 l6 -248 -40
0 -41 0 0 143 c-1 78 -5 290 -10 471 -8 293 -7 334 8 370 14 38 28 55 43 56 3
0 9 -28 13 -61z m2300 -33 l33 -14 6 -107 c4 -60 7 -146 7 -192 l0 -84 -37 7
c-21 4 -41 9 -45 11 -5 2 -8 97 -7 211 0 114 3 201 6 194 3 -7 19 -19 37 -26z
m482 -602 c-2 -5 -20 -8 -39 -6 l-35 4 -4 281 c-2 182 1 283 7 286 6 2 24 18
40 35 l30 31 3 -310 c1 -170 0 -315 -2 -321z m-338 369 l2 -202 -28 10 c-28
10 -29 12 -36 101 -3 50 -6 138 -6 195 l0 104 33 -3 32 -3 3 -202z m-1868 93
c7 -53 10 -206 8 -436 -3 -328 -4 -355 -20 -358 -17 -3 -18 23 -18 450 0 450
6 514 30 344z m1990 13 c0 -50 5 -143 11 -207 5 -64 9 -140 7 -169 l-3 -52
-46 52 -46 52 -6 208 -7 207 45 0 45 0 0 -91z m101 -19 c4 -58 7 -184 8 -281
1 -175 1 -177 -21 -183 -13 -3 -26 -2 -30 2 -3 4 -10 134 -14 290 l-7 284 29
-4 29 -3 6 -105z m806 -7 c4 -49 8 -182 8 -298 l0 -210 -120 0 -120 0 0 110 0
110 35 2 c55 4 144 24 159 36 11 9 12 42 6 174 -6 142 -5 163 8 163 12 0 17
-20 24 -87z m162 56 c42 -12 81 -25 88 -31 6 -5 14 -41 17 -81 11 -143 15
-462 6 -476 -7 -13 -13 -13 -37 -2 -15 8 -64 16 -108 20 l-80 6 -6 275 c-3
151 -9 283 -13 293 -7 14 -3 17 25 17 18 0 67 -9 108 -21z m-3726 -516 l6
-333 -35 0 -34 0 0 344 c0 278 3 358 16 412 8 38 18 73 22 79 11 16 19 -147
25 -502z m2205 350 l3 -123 -44 0 -44 0 -7 77 c-3 42 -6 98 -6 125 l0 49 48
-3 47 -3 3 -122z m1719 89 c59 -31 129 -113 166 -192 43 -91 86 -276 98 -423
17 -201 18 -1302 1 -1319 -9 -9 -58 -14 -166 -17 l-153 -3 1 513 0 514 51 25
50 25 -1 85 c-1 91 -21 151 -68 207 -23 28 -24 31 -28 321 -2 160 -3 292 -3
292 1 0 24 -12 52 -28z m-3433 -3 c38 -10 38 -11 33 -51 -10 -77 -37 -90 -229
-108 -125 -12 -191 -9 -204 11 -11 19 6 75 34 107 22 27 37 34 87 41 88 12
234 13 279 0z m2576 -90 c4 -13 10 -64 14 -114 l7 -90 -21 21 c-18 18 -22 37
-27 119 -5 79 -4 97 7 93 8 -2 17 -15 20 -29z m78 -50 c15 -19 27 -52 33 -94
7 -52 28 -553 29 -687 0 -23 -4 -28 -25 -28 -21 0 -25 5 -25 31 0 179 -27 625
-46 767 -7 49 2 52 34 11z m4582 -168 c0 -109 3 -219 6 -245 6 -37 4 -46 -9
-46 -8 0 -17 6 -20 14 -3 8 -6 118 -7 245 0 201 1 231 15 231 13 0 15 -27 15
-199z m-7236 -138 c4 -153 10 -288 13 -300 5 -21 1 -23 -31 -23 -21 0 -38 6
-41 13 -2 6 -5 137 -8 289 l-3 278 25 9 c14 5 29 10 32 10 3 1 9 -124 13 -276z
m-110 215 c3 -24 8 -154 12 -290 l7 -248 -50 0 -51 0 -6 208 c-4 114 -7 242
-9 284 -2 84 -2 85 59 87 30 1 32 -1 38 -41z m-133 -173 c4 -110 10 -237 14
-282 l6 -83 -60 0 -61 0 0 208 c0 115 -3 244 -7 286 l-6 77 54 -3 54 -3 6
-200z m6963 153 c3 -29 6 -302 6 -605 l0 -553 -119 0 -119 0 -6 153 c-3 83 -9
353 -12 599 l-6 447 108 4 c60 1 116 4 125 5 12 2 18 -10 23 -50z m-293 -83
c4 -66 9 -335 13 -597 l6 -478 -102 0 c-57 0 -110 5 -118 10 -8 5 -16 22 -16
37 -6 134 -3 1128 3 1130 20 7 151 21 178 19 l30 -1 6 -120z m-260 -412 c0
-285 2 -540 4 -566 l4 -48 -32 8 c-18 4 -85 8 -149 8 l-118 0 -2 482 -3 481
72 4 c40 2 78 9 85 16 6 6 14 39 16 72 l4 60 59 0 59 0 1 -517z m-4336 451 c4
-30 8 -175 9 -322 l1 -267 -82 -3 -83 -3 0 320 c0 246 3 320 13 324 6 3 40 6
74 6 l62 1 6 -56z m117 35 c35 -12 66 -24 70 -28 10 -9 63 -619 55 -627 -2 -2
-25 8 -53 21 -35 17 -62 23 -91 20 l-40 -4 -6 236 c-4 130 -10 274 -14 320 -4
59 -3 83 5 83 7 0 40 -10 74 -21z m-304 -310 l-3 -321 -108 -1 -107 -2 0 302
0 301 58 20 c31 11 81 21 110 21 l52 1 -2 -321z m1157 192 l0 -105 -32 -3 -33
-4 0 73 c0 40 -3 90 -7 111 l-6 38 39 -3 39 -3 0 -104z m-2252 -738 c2 -461 8
-848 12 -860 l7 -23 -194 0 -195 0 -6 377 c-4 207 -7 477 -7 599 l0 223 30 16
30 15 2 233 3 232 142 5 c78 3 145 9 149 13 4 4 11 7 15 7 4 0 9 -377 12 -837z
m-1143 579 c0 -180 3 -251 12 -260 8 -8 49 -12 119 -12 l106 0 7 -142 c3 -79
9 -347 12 -595 l7 -453 -192 0 -191 0 0 855 0 855 60 0 60 0 0 -248z m1980
-66 l0 -293 -43 -17 c-24 -9 -54 -28 -67 -41 -13 -14 -26 -25 -29 -25 -3 0 -5
125 -3 277 2 245 5 279 20 297 18 20 111 96 118 96 2 0 4 -132 4 -294z m783
180 c79 -95 111 -183 142 -391 15 -104 33 -714 35 -1171 l0 -151 -42 -11 c-24
-6 -71 -14 -104 -17 l-62 -6 -5 523 c-3 341 -10 598 -21 738 -27 365 -37 493
-42 550 l-6 55 34 -37 c18 -20 50 -57 71 -82z m437 53 c0 -19 -33 -43 -44 -32
-3 3 -6 27 -6 51 l0 45 25 -23 c14 -13 25 -32 25 -41z m2225 5 c5 -34 3 -49
-6 -55 -22 -13 -29 0 -29 52 0 66 25 68 35 3z m118 29 c2 -5 7 -25 11 -45 l7
-38 -44 0 c-47 0 -57 11 -57 68 0 19 5 22 39 22 22 0 42 -3 44 -7z m162 -25
c6 -5 15 -131 22 -286 7 -152 16 -317 21 -367 5 -49 8 -91 7 -93 -1 -1 -17 21
-35 50 -19 29 -48 69 -66 88 -31 34 -32 38 -38 157 l-7 123 28 12 c51 22 63
38 63 87 -1 61 -31 126 -68 145 -33 17 -42 34 -42 77 l0 30 53 -7 c28 -4 57
-11 62 -16z m139 -275 c3 -153 9 -317 12 -365 l6 -88 -34 0 -34 0 -12 123 c-6
67 -14 203 -17 302 -3 99 -8 208 -11 243 l-6 62 45 0 45 0 6 -277z m249 257
l47 0 0 -546 0 -546 -110 4 c-60 2 -113 8 -117 12 -8 8 -22 382 -29 805 l-5
284 83 -6 c46 -4 104 -7 131 -7z m337 -498 l0 -498 -33 -12 c-18 -7 -52 -28
-74 -47 -35 -30 -48 -35 -92 -35 l-51 0 0 545 0 545 125 0 125 0 0 -498z
m-3220 371 c0 -43 3 -162 7 -265 l6 -188 -46 0 -47 0 -1 58 c-4 240 -12 383
-25 417 -4 10 0 15 14 15 12 0 24 5 27 11 7 10 41 27 58 28 4 1 7 -34 7 -76z
m-1404 -195 c-3 -134 -9 -515 -12 -848 -3 -333 -7 -606 -9 -608 -1 -2 -51 -6
-110 -9 l-108 -6 7 149 c3 82 10 338 16 569 8 374 15 496 36 600 25 129 143
395 175 395 8 0 9 -70 5 -242z m3794 227 c42 -22 60 -53 60 -106 0 -44 -2 -48
-32 -59 -21 -8 -116 -14 -260 -18 -200 -4 -231 -2 -253 12 -19 12 -25 25 -25
50 0 54 8 66 46 66 32 0 34 -2 34 -33 0 -40 15 -57 51 -57 32 0 47 16 55 58 6
31 8 32 60 32 53 0 54 1 54 28 0 16 3 32 7 35 13 14 173 7 203 -8z m-3870 -4
c0 -5 -18 -44 -39 -88 -46 -93 -89 -217 -98 -282 -12 -85 -18 -9 -15 189 l3
190 74 0 c41 0 75 -4 75 -9z m1219 -53 c14 -80 24 -447 11 -398 -5 19 -18 95
-30 169 -18 114 -39 189 -75 274 -6 15 -1 17 38 17 l45 0 11 -62z m122 35 c11
-26 30 -449 21 -465 -2 -5 -23 -8 -46 -8 l-43 0 -6 218 c-4 119 -9 232 -13
250 -6 32 -6 32 35 32 36 0 43 -4 52 -27z m331 -99 c4 -22 7 -63 7 -92 1 -51
0 -53 -21 -46 -13 3 -24 7 -25 8 -1 1 -5 46 -9 101 l-7 99 24 -16 c15 -10 27
-30 31 -54z m478 45 c19 -6 54 -27 77 -46 49 -39 83 -118 83 -193 0 -41 -4
-52 -22 -64 -34 -20 -144 -33 -309 -35 l-146 -2 -7 73 c-10 98 -37 172 -86
229 -22 26 -40 51 -40 55 0 12 412 -3 450 -17z m920 -1 c0 -44 -27 -58 -110
-58 -86 0 -136 13 -150 40 -13 25 -13 30 5 30 9 0 18 -7 21 -15 4 -8 14 -15
24 -15 10 0 20 7 24 15 3 10 19 15 46 15 29 0 40 -4 40 -15 0 -22 38 -18 52 5
17 27 48 26 48 -2z m119 -83 l2 -105 -36 0 -35 0 0 105 0 105 34 0 34 0 1
-105z m95 53 c3 -29 6 -74 6 -100 0 -47 -1 -48 -30 -48 l-30 0 0 78 c0 42 -3
87 -6 100 -6 19 -3 22 23 22 29 0 30 -2 37 -52z m-544 27 c0 -19 -17 -19 -50
0 l-25 14 38 1 c26 0 37 -4 37 -15z m-81 -70 c30 -15 51 -33 55 -47 11 -39 20
-598 10 -598 -6 0 -15 5 -21 11 -6 6 -27 16 -47 23 l-36 12 -4 115 c-2 63 -7
203 -12 312 -4 108 -4 197 0 197 4 0 28 -11 55 -25z m-898 -64 c17 -37 23 -79
30 -219 6 -95 9 -203 7 -240 -3 -61 -5 -67 -25 -70 -13 -2 -23 -2 -23 0 0 21
-31 480 -36 533 -6 64 -5 68 10 56 9 -8 26 -34 37 -60z m1319 -3 l0 -63 -45
-22 -45 -22 0 43 c0 24 -3 57 -6 73 -5 27 -3 29 38 39 24 6 46 12 51 13 4 0 7
-27 7 -61z m3034 -121 c4 -83 9 -186 12 -227 l4 -75 -20 37 c-11 20 -24 40
-30 43 -11 7 -14 378 -3 389 4 3 12 1 18 -4 8 -7 15 -64 19 -163z m-3164 108
c0 -30 -2 -55 -4 -55 -2 0 -15 17 -30 38 -35 51 -34 72 4 72 30 0 30 -1 30
-55z m464 15 c36 -4 51 -9 51 -20 0 -12 -14 -15 -65 -15 l-65 0 -3 34 c-3 32
-2 34 14 21 9 -8 40 -17 68 -20z m180 -16 c3 -9 6 -25 6 -36 0 -21 -15 -21
-75 2 -24 9 -33 29 -18 43 14 14 81 7 87 -9z m117 -49 c3 -33 5 -61 4 -62 0
-1 -17 5 -37 15 -30 14 -37 23 -41 57 -7 50 -2 57 36 53 31 -3 32 -4 38 -63z
m133 -12 c3 -42 6 -89 6 -105 l0 -28 -42 27 c-24 15 -44 27 -45 28 -1 0 -7 32
-13 69 -12 79 -8 86 51 86 l36 0 7 -77z m-966 -26 c104 -136 172 -266 193
-371 6 -28 17 -71 24 -96 8 -25 21 -124 30 -220 13 -146 15 -302 13 -950 l-3
-775 -70 -13 c-151 -28 -172 -32 -217 -37 l-48 -6 0 721 c0 614 2 721 14 726
33 13 46 68 47 203 2 127 1 132 -29 193 l-30 63 -4 327 c-4 371 -10 351 80
235z m-1223 17 c22 -22 16 -66 -9 -70 -28 -4 -39 6 -25 22 9 11 9 18 1 26 -16
16 -15 38 2 38 8 0 22 -7 31 -16z m1660 -211 c-4 -126 -8 -234 -11 -241 -3 -9
-21 -12 -61 -10 l-58 3 -3 232 -2 232 42 4 c24 2 56 4 71 5 l28 2 -6 -227z
m183 212 c4 -4 7 -111 7 -238 l0 -232 -65 -1 c-36 0 -72 3 -80 7 -13 6 -14 37
-8 231 5 122 10 229 13 237 4 10 20 12 66 8 33 -3 64 -8 67 -12z m-358 -102
c0 -54 3 -128 7 -165 4 -48 3 -68 -6 -68 -6 0 -11 5 -11 11 0 18 -77 187 -100
218 -11 16 -20 33 -20 38 0 15 83 58 123 62 4 1 7 -43 7 -96z m515 43 l95 -45
0 -196 0 -196 -21 12 c-12 6 -55 12 -95 13 -41 1 -75 4 -78 7 -9 10 -14 449
-5 449 5 0 52 -20 104 -44z m-4695 -228 c0 -145 3 -415 7 -600 l6 -338 -185 0
-185 0 -6 579 c-4 318 -10 586 -13 595 -5 14 13 16 158 19 89 1 175 4 191 5
l27 2 0 -262z m2734 130 c3 -29 8 -105 12 -169 l6 -116 -28 -7 c-15 -4 -30 -3
-35 1 -9 9 -40 324 -33 335 3 5 20 8 39 8 33 0 34 -1 39 -52z m2186 -52 c21
-19 55 -61 75 -92 l37 -58 -23 -15 c-13 -8 -59 -49 -101 -92 l-78 -77 0 205 0
204 26 -20 c14 -11 43 -36 64 -55z m-2981 38 c27 -22 31 -32 31 -75 0 -44 -5
-54 -41 -94 -28 -30 -55 -49 -83 -56 -60 -16 -576 -6 -636 13 -45 14 -45 14
-48 64 -3 59 23 106 78 138 37 22 9 20 592 34 69 2 79 0 107 -24z m1302 -54
c4 -41 7 -272 8 -512 l1 -438 -115 0 -115 0 0 148 c0 82 -3 311 -7 510 l-6
361 84 4 c46 2 98 3 114 3 l30 -1 6 -75z m-268 -267 c4 -186 7 -416 7 -510 l0
-173 -85 -1 c-47 -1 -91 -2 -97 -3 -13 -1 -22 160 -31 540 l-3 151 51 9 50 9
3 158 3 157 48 0 48 0 6 -337z m-439 240 c3 -21 6 -75 6 -121 l0 -83 -32 3
-33 3 -3 109 c-3 113 1 125 39 126 11 0 18 -12 23 -37z m100 -40 c3 -42 6 -96
6 -120 0 -41 -1 -43 -30 -43 -29 0 -30 2 -30 43 0 24 -3 78 -6 120 l-7 77 30
0 30 0 7 -77z m-200 -35 c10 -109 6 -129 -23 -121 -18 5 -20 15 -23 110 -2 58
-1 107 2 109 2 3 11 3 20 2 11 -2 17 -25 24 -100z m-82 42 c3 -25 7 -170 7
-322 l1 -278 -40 0 -40 0 0 218 c0 121 -3 267 -7 326 l-6 107 39 -3 c38 -3 39
-4 46 -48z m-353 -622 l1 -488 -104 0 -103 0 -7 88 c-3 48 -9 264 -12 480 l-7
392 34 0 c59 0 104 19 144 60 l40 41 7 -43 c3 -24 7 -262 7 -530z m5130 500
c1 -16 -3 -28 -9 -28 -6 0 -10 24 -9 53 1 41 3 47 9 27 4 -14 8 -37 9 -52z
m-1954 -131 c4 -85 10 -158 13 -164 4 -5 19 -13 33 -16 l26 -7 7 -191 c4 -106
3 -195 -1 -199 -4 -3 -34 -14 -65 -23 -45 -14 -66 -28 -104 -70 -26 -29 -57
-68 -68 -87 l-21 -35 -4 95 c-1 52 3 231 9 396 7 166 10 315 7 332 -6 27 -2
35 32 62 47 37 90 60 112 60 14 0 18 -21 24 -153z m-3954 118 c25 -4 50 -10
56 -13 24 -15 33 -211 26 -576 l-6 -366 -79 0 -78 0 0 490 c0 464 1 490 18
481 9 -5 38 -12 63 -16z m304 -27 c2 -7 6 -219 10 -470 l6 -458 -104 0 -103 0
0 470 1 470 93 0 c65 0 94 -4 97 -12z m206 -158 c4 -91 9 -306 12 -477 l4
-313 -76 7 c-42 3 -80 10 -86 15 -6 5 -11 183 -14 474 l-3 465 78 -3 79 -3 6
-165z m5433 -228 l-7 -380 -61 -5 c-34 -2 -64 -2 -68 0 -5 2 -8 129 -8 281 l0
278 43 14 42 15 5 60 c4 42 12 69 29 92 14 18 26 31 28 29 2 -2 1 -174 -3
-384z m-4429 9 c4 -187 4 -344 1 -349 -14 -23 -43 -2 -74 53 -44 78 -127 172
-172 195 l-38 19 -4 203 c-2 112 -3 206 -1 211 3 4 66 7 142 7 l138 0 8 -339z
m-326 132 c-1 -237 -14 -219 -18 25 -2 118 1 172 8 172 8 0 11 -62 10 -197z
m2319 181 c26 -4 36 -13 53 -48 l20 -43 -53 -109 c-41 -84 -59 -111 -79 -118
-14 -5 -110 -5 -222 -1 l-197 7 0 42 c0 22 -4 59 -9 81 -5 22 -12 76 -15 120
l-7 80 238 -3 c131 -1 253 -5 271 -8z m-1014 -39 c30 -20 89 -108 106 -159 8
-26 11 -75 8 -148 -4 -102 -6 -111 -31 -136 -23 -22 -36 -27 -84 -27 l-57 0 1
55 c0 48 3 55 22 58 67 10 67 169 0 198 -18 8 -21 19 -21 84 0 41 1 78 1 83 2
12 30 8 55 -8z m1210 -537 c-5 -356 -3 -575 4 -658 7 -69 15 -270 18 -447 l7
-321 -54 -6 c-30 -3 -94 -8 -142 -11 l-89 -6 5 538 c4 469 7 560 26 713 11 96
24 198 27 225 15 123 47 232 100 339 51 102 90 166 100 166 2 0 1 -240 -2
-532z m1011 340 c3 -79 5 -181 3 -228 l-3 -85 -53 -8 c-30 -5 -57 -6 -60 -2
-7 7 -20 431 -14 453 3 8 24 12 62 12 l58 0 7 -142z m116 125 c9 -9 29 -250
29 -355 0 -63 6 -56 -73 -73 l-24 -5 -7 193 c-4 105 -9 207 -13 226 l-6 34 43
-6 c23 -3 46 -9 51 -14z m-280 -238 l4 -219 -30 -6 c-16 -4 -40 -12 -52 -18
-12 -7 -24 -8 -27 -4 -6 10 -10 421 -5 426 19 16 95 52 100 47 4 -3 8 -105 10
-226z m376 173 c16 -18 42 -55 56 -83 l25 -50 7 -551 c7 -612 12 -564 -59
-564 l-33 0 -5 336 -6 337 24 45 c32 60 31 94 -5 134 -28 32 -29 37 -35 178
-4 80 -9 169 -12 198 -4 29 -2 52 3 52 5 0 23 -15 40 -32z m838 -90 c3 -62 5
-187 3 -278 l-3 -165 -75 -6 c-41 -3 -78 -4 -82 -1 -5 2 -8 126 -8 277 l0 274
38 4 c20 2 56 4 79 5 l41 2 7 -112z m-705 32 c0 -40 -4 -70 -10 -70 -5 0 -10
4 -10 9 0 5 -16 37 -34 70 l-35 61 45 0 44 0 0 -70z m163 -57 c4 -71 7 -195 7
-278 l0 -150 -37 1 c-21 1 -45 2 -54 3 -18 1 -22 50 -35 389 l-7 162 60 0 60
0 6 -127z m177 -1 c0 -71 3 -197 7 -280 l6 -152 -70 0 -70 0 -6 198 c-4 108
-10 234 -13 280 l-7 82 77 0 76 0 0 -128z m160 -152 l0 -280 -53 0 -54 0 -6
98 c-4 53 -7 179 -7 280 l0 182 60 0 60 0 0 -280z m-1210 219 c0 -3 -14 -26
-32 -50 -48 -67 -109 -205 -121 -275 l-11 -64 -38 0 -38 0 0 200 0 201 120 -3
c66 -1 120 -5 120 -9z m59 -237 c1 -149 -1 -166 -19 -189 -14 -18 -20 -41 -20
-74 0 -39 4 -50 26 -66 23 -17 26 -28 35 -123 5 -58 8 -197 7 -310 l-3 -205
-50 0 -50 0 -12 330 c-6 182 -12 423 -13 536 l-1 205 43 68 43 68 7 -38 c4
-22 7 -113 7 -202z m-1294 -388 c0 -537 0 -536 -50 -527 l-24 5 -3 507 c-2
278 -1 510 0 514 2 4 20 7 40 5 l37 -3 0 -501z m134 489 l63 -6 -4 -498 c-2
-273 -5 -500 -8 -502 -3 -3 -37 -7 -75 -8 l-70 -3 -3 512 c-2 494 -2 512 16
512 11 0 47 -3 81 -7z m216 -10 c-10 -25 -31 -151 -44 -268 -6 -55 -16 -145
-23 -200 -6 -55 -14 -197 -17 -315 -6 -201 -7 -215 -25 -218 -18 -4 -19 2 -13
149 4 83 7 311 7 505 l0 353 48 4 c26 2 53 4 61 5 9 1 11 -4 6 -15z m-2323
-93 c3 -30 6 -112 7 -182 l1 -128 -45 0 -45 0 0 178 c0 98 3 182 7 186 4 4 21
6 38 4 28 -3 30 -6 37 -58z m110 19 l36 -18 6 -83 c7 -97 13 -298 9 -298 -2 0
-23 15 -47 34 -25 19 -50 36 -57 38 -10 3 -14 45 -16 154 -2 82 -5 161 -6 177
-4 31 7 30 75 -4z m3033 -469 c4 -201 8 -399 9 -440 l1 -75 -40 0 -40 0 -3
355 c-3 364 3 471 36 580 l17 54 6 -54 c4 -30 10 -219 14 -420z m794 286 c15
-169 15 -773 0 -781 -6 -4 -12 -5 -15 -3 -2 3 -6 218 -9 479 -6 477 2 568 24
305z m-3663 -11 c19 -38 39 -92 45 -120 6 -30 13 -235 16 -502 l5 -453 -55 0
-54 0 -7 53 c-16 134 -26 404 -28 754 l-3 382 23 -22 c13 -12 39 -53 58 -92z
m3479 53 c23 -18 26 -27 22 -59 -9 -65 -41 -96 -132 -125 -74 -24 -89 -25
-195 -19 -139 7 -178 18 -186 50 -15 59 56 118 155 130 31 3 103 15 161 25
138 24 143 24 175 -2z m-2352 -155 c4 -87 7 -404 7 -705 l0 -548 -145 0 -145
0 0 568 c-1 312 -5 601 -10 642 -4 41 -7 76 -6 77 1 1 29 5 62 9 32 4 74 13
92 21 26 13 32 21 32 47 0 43 5 46 60 46 l47 0 6 -157z m-2922 10 c-6 -59 -8
-63 -49 -93 -24 -17 -61 -58 -83 -92 -22 -34 -42 -64 -44 -67 -3 -2 -5 46 -5
107 l0 112 35 0 c55 0 103 25 126 65 12 20 22 35 23 33 1 -2 0 -31 -3 -65z
m4554 -7 c0 -45 -2 -49 -24 -51 -14 -1 -37 -16 -53 -36 -22 -26 -28 -43 -28
-80 0 -56 22 -88 71 -104 31 -11 34 -16 36 -53 l2 -42 -112 0 c-119 0 -167 14
-214 59 -20 18 -23 32 -23 89 0 79 22 135 77 196 58 65 86 75 198 73 l70 -2 0
-49z m-2583 -346 c4 -206 11 -492 16 -635 6 -143 8 -263 5 -267 -2 -5 -42 -8
-89 -8 -82 0 -85 1 -94 26 -6 14 -10 67 -10 118 0 101 3 105 66 106 20 0 21 6
27 218 12 388 6 634 -18 780 l-8 43 49 -3 49 -3 7 -375z m264 358 c4 -13 9
-303 11 -645 l4 -623 -85 0 c-47 0 -87 4 -90 9 -14 21 -44 1236 -32 1267 4 11
26 14 95 14 83 0 89 -1 97 -22z m318 -30 c3 -29 6 -320 6 -645 l0 -593 -89 0
-89 0 -6 103 c-10 155 -46 1021 -46 1110 l0 77 109 0 108 0 7 -52z m3604 -221
c2 -226 2 -227 -18 -215 -19 12 -20 23 -20 231 0 203 1 218 18 215 15 -3 17
-23 20 -231z m-6378 87 l0 -124 -90 0 -90 0 0 113 0 114 73 12 c39 7 77 14 82
16 22 5 25 -11 25 -131z m5909 121 c19 -11 13 -149 -9 -207 -30 -77 -60 -100
-124 -96 -49 3 -51 4 -52 33 -2 42 4 53 29 57 59 8 60 109 1 164 -57 54 -48
63 55 59 49 -1 94 -6 100 -10z m354 -47 c-1 -35 -5 -286 -7 -558 -3 -272 -8
-508 -10 -525 -3 -16 -10 -212 -16 -435 -5 -223 -13 -440 -16 -482 -8 -86 -2
-81 -108 -94 l-59 -7 7 229 c9 329 10 1722 1 1831 l-7 92 53 4 c30 2 79 4 109
5 l56 2 -3 -62z m-6483 -88 c0 -116 -1 -120 -22 -124 -38 -8 -154 -26 -166
-26 -9 0 -12 37 -12 130 l0 129 58 4 c31 2 76 4 100 5 l42 2 0 -120z m5703
-40 c5 -85 5 -228 2 -317 -8 -181 0 -164 -72 -167 -17 -1 -18 20 -18 311 l0
313 25 9 c53 20 54 18 63 -149z m-6773 0 l0 -150 -105 0 -105 0 0 53 c0 28 -3
96 -7 150 l-6 97 111 0 112 0 0 -150z m250 11 c0 -162 9 -150 -122 -158 l-88
-6 0 152 0 151 105 0 105 0 0 -139z m170 134 c0 -2 -13 -25 -28 -49 -16 -25
-43 -86 -61 -136 -18 -49 -37 -90 -42 -90 -5 0 -9 62 -9 140 l0 140 70 0 c39
0 70 -2 70 -5z m216 -162 c-16 -443 -18 -1084 -5 -1323 7 -135 14 -270 14
-300 l0 -55 -90 0 -90 0 3 70 c1 39 2 449 1 912 0 464 2 847 6 853 3 5 42 10
87 10 l80 0 -6 -167z m194 28 l0 -139 -31 -11 c-17 -6 -54 -30 -82 -53 l-50
-43 6 115 c4 63 7 150 7 193 l0 77 75 0 75 0 0 -139z m2310 81 c30 -29 40 -47
40 -70 0 -28 -4 -32 -37 -41 -44 -12 -267 -31 -360 -31 -76 0 -103 12 -103 45
0 21 5 25 30 25 17 0 39 -9 50 -20 27 -27 46 -25 71 9 14 19 34 32 58 36 47 9
61 21 61 56 l0 29 75 0 c72 0 75 -1 115 -38z m3320 21 c3 -3 7 -139 8 -304 l4
-299 -50 0 -50 0 -6 93 c-3 50 -7 190 -8 309 l-3 216 50 -5 c28 -3 52 -8 55
-10z m188 -295 l-3 -303 -66 -3 -66 -3 -5 298 c-3 164 -4 301 -1 306 2 4 35 7
74 7 l69 0 -2 -302z m-5138 263 c0 -32 12 -52 36 -62 22 -8 24 -14 24 -82 0
-69 -2 -75 -25 -85 -35 -16 -56 -65 -56 -128 0 -63 9 -78 57 -94 l34 -12 0
-239 0 -239 -53 0 -54 0 -13 333 c-15 395 -10 595 16 614 25 18 34 16 34 -6z
m-1077 -1543 l-8 -233 -55 3 c-30 2 -59 8 -65 13 -14 14 -19 1011 -6 1229 15
241 38 348 107 494 19 38 19 32 27 -617 5 -361 5 -761 0 -889z m1417 1455 c0
-27 -3 -65 -7 -86 -5 -35 -8 -38 -37 -35 l-31 3 -3 69 c-4 88 0 96 43 96 l35
0 0 -47z m178 -130 l2 -172 -37 6 c-21 3 -54 11 -73 18 -32 11 -35 16 -38 56
-2 24 -1 95 3 157 l7 113 67 -3 66 -3 3 -172z m116 131 c3 -26 6 -102 6 -169
0 -133 -4 -142 -56 -129 l-24 6 0 169 0 169 34 0 c32 0 34 -2 40 -46z m126
-129 l0 -175 -40 0 -40 0 0 123 c0 67 -3 146 -6 175 l-7 52 47 0 46 0 0 -175z
m-535 85 l0 -75 -64 0 -64 0 -1 70 -1 70 45 6 c87 12 85 13 85 -71z m649 34
c3 -26 6 -100 6 -164 l0 -118 -35 -4 c-20 -2 -38 -2 -40 1 -3 2 -5 78 -5 168
l0 163 34 0 c32 0 34 -2 40 -46z m-958 -830 c-7 -19 -71 -18 -90 2 -14 13 -16
53 -16 282 1 348 12 431 73 545 l22 42 8 -429 c4 -236 6 -435 3 -442z m1074
726 c0 -139 0 -140 -26 -156 -14 -10 -28 -13 -33 -8 -5 5 -12 75 -15 157 l-7
147 40 0 41 0 0 -140z m112 25 c3 -60 11 -182 16 -270 6 -88 14 -215 17 -282
l7 -123 -45 0 c-24 0 -49 6 -55 13 -9 11 -15 348 -13 710 l1 68 33 -3 32 -3 7
-110z m582 -181 c2 -126 10 -286 17 -356 7 -70 10 -130 7 -133 -3 -3 -32 -7
-64 -8 l-59 -2 -3 351 -3 350 48 15 c26 8 49 14 50 14 2 -1 5 -105 7 -231z
m4082 -728 c-2 -525 -6 -958 -9 -964 -4 -5 -50 -12 -104 -16 -54 -4 -114 -9
-134 -12 l-36 -6 -7 513 c-3 283 -9 616 -12 741 l-7 227 28 32 c25 30 27 39
25 113 -2 45 -2 102 -1 129 l1 47 67 0 c67 0 67 0 113 48 28 29 50 62 53 81
22 110 26 -39 23 -933z m-4571 922 l30 -3 7 -150 c16 -319 23 -511 20 -522 -2
-7 -19 -13 -37 -13 -31 0 -32 1 -39 53 -4 28 -11 147 -17 262 -5 116 -13 252
-17 303 -4 51 -6 95 -3 97 2 3 9 -2 15 -10 6 -7 25 -15 41 -17z m345 -245 c0
-142 3 -302 7 -356 l6 -98 -44 3 -44 3 -6 120 c-3 66 -9 222 -13 347 l-8 226
24 5 c13 2 35 5 51 6 l27 1 0 -257z m-136 112 c17 -405 22 -560 20 -564 -2 -2
-32 0 -67 3 l-64 7 -7 122 c-11 215 -19 534 -14 548 4 10 24 14 66 14 l60 0 6
-130z m-1604 101 c0 -2 -4 -26 -9 -53 -6 -27 -11 -105 -12 -172 -1 -69 -7
-128 -13 -136 -9 -13 -49 -15 -247 -16 -244 0 -314 8 -343 40 -12 13 -14 32
-9 91 6 69 9 77 47 118 63 68 113 87 326 121 54 9 260 14 260 7z m4412 -65
c30 -24 67 -42 90 -45 21 -3 56 -9 78 -12 l40 -6 1 -231 c1 -128 3 -317 5
-420 2 -173 1 -188 -14 -181 -9 4 -64 10 -122 13 l-105 6 -6 335 c-4 184 -12
382 -18 439 -12 114 -13 141 -6 141 2 0 28 -18 57 -39z m-3886 4 c3 -8 -1 -24
-10 -37 -37 -53 -19 -76 84 -109 l55 -17 -207 -1 c-227 -1 -238 2 -238 59 0
46 17 79 52 100 28 17 51 20 146 20 89 0 114 -3 118 -15z m4231 -198 c2 -151
5 -170 27 -161 8 3 53 6 100 7 l86 2 2 -395 c2 -217 2 -396 2 -398 -1 -1 -33
30 -72 70 -44 46 -96 87 -136 108 -37 20 -64 41 -64 50 1 8 -2 202 -7 432 -7
402 -7 416 11 421 48 12 49 10 51 -136z m1636 11 c30 -51 31 -58 35 -201 l4
-147 -36 -15 c-19 -8 -47 -15 -61 -15 l-25 0 5 213 c3 116 5 220 5 230 0 17 2
17 22 3 11 -8 35 -39 51 -68z m-5223 11 c0 -28 -3 -31 -22 -25 -13 3 -33 6
-45 6 -35 0 -31 37 5 43 61 9 62 9 62 -24z m-433 3 c18 -11 31 -90 38 -233 8
-158 -4 -283 -26 -287 -14 -3 -17 16 -23 135 -3 76 -9 195 -12 266 -6 123 -4
136 23 119z m301 -4 c-5 -15 -82 -23 -107 -12 -12 6 -7 9 19 14 60 12 92 11
88 -2z m-163 -8 c-3 -5 -24 -10 -46 -10 -21 0 -39 5 -39 10 0 6 21 10 46 10
27 0 43 -4 39 -10z m-189 -287 l7 -223 -41 0 -42 0 0 168 c0 93 -3 203 -6 245
l-7 76 34 3 c29 3 35 -1 41 -22 4 -13 11 -125 14 -247z m-271 255 c2 -7 6
-118 7 -246 l3 -232 -47 0 c-83 0 -78 -17 -78 251 l0 239 55 0 c36 0 57 -5 60
-12z m157 -223 c4 -126 6 -236 3 -242 -3 -8 -24 -13 -55 -13 -32 0 -52 5 -55
13 -2 6 -5 117 -7 245 l-4 233 55 -3 56 -3 7 -230z m576 196 c17 -9 22 -21 22
-55 0 -70 -18 -79 -165 -84 -148 -5 -198 2 -193 26 2 9 13 18 25 20 45 7 38
62 -8 62 -22 0 -29 5 -29 19 0 12 9 22 23 25 43 9 302 -1 325 -13z m2807 -361
l0 -314 -74 -28 c-41 -15 -96 -41 -124 -58 -27 -17 -51 -29 -52 -28 -2 2 -1
100 2 219 l6 217 38 11 c45 14 86 59 95 106 3 19 4 68 2 109 l-3 75 35 4 c83
9 75 41 75 -313z m-157 298 c16 -16 16 -159 0 -193 -17 -37 -57 -55 -123 -55
l-55 0 0 40 c0 29 5 42 20 50 12 6 25 22 30 35 13 33 -5 91 -30 98 -11 3 -20
12 -20 21 0 13 14 16 83 16 51 0 88 -5 95 -12z m-4422 -17 c5 -6 39 -16 76
-23 42 -8 70 -18 73 -27 10 -26 24 -428 26 -769 l3 -323 -34 -27 c-26 -20 -47
-27 -86 -29 l-52 -2 -6 67 c-24 253 -38 1142 -18 1142 4 0 12 -4 18 -9z m6218
-568 c3 -307 8 -644 11 -749 l5 -191 -53 -7 c-28 -3 -92 -6 -140 -6 l-88 0 6
748 6 747 107 6 c59 3 114 6 123 7 15 2 17 -48 23 -555z m-329 424 c10 -160
-8 -1354 -20 -1366 -6 -6 -34 -8 -66 -4 l-56 6 -7 56 c-67 591 -64 543 -65
1011 l-1 415 104 -3 104 -3 7 -112z m-5501 61 c3 -29 8 -240 11 -469 l6 -416
-32 -14 c-18 -7 -59 -35 -92 -62 -32 -27 -60 -47 -62 -45 -1 1 -8 226 -14 498
-6 272 -14 510 -17 528 l-6 32 100 0 101 0 5 -52z m206 -75 c1 -71 5 -148 11
-173 5 -25 14 -115 19 -200 5 -85 12 -202 16 -260 l6 -105 -83 -21 c-46 -11
-91 -22 -99 -25 -17 -5 -23 121 -33 639 l-5 272 84 0 84 0 0 -127z m1190 -234
l0 -299 -47 0 -48 0 3 287 c1 159 5 293 7 300 4 11 61 22 78 15 4 -2 7 -138 7
-303z m-2553 291 l82 0 3 -180 3 -180 -31 -10 c-17 -6 -62 -41 -101 -78 l-71
-67 -6 134 c-3 74 -6 192 -6 264 0 129 0 129 23 123 12 -3 59 -6 104 -6z
m2285 -41 c12 -73 21 -409 14 -481 l-8 -68 -43 0 -44 0 -3 158 c-2 86 1 221 6
300 l9 143 31 -4 c28 -3 32 -7 38 -48z m136 -252 l-3 -292 -42 -3 -43 -3 -1
228 c0 125 -3 259 -8 296 -4 37 -6 69 -5 70 1 1 25 0 53 -1 l51 -4 -2 -291z
m-2156 173 c4 -228 8 -203 -32 -211 -19 -4 -52 -9 -72 -12 l-38 -6 0 175 0
174 70 0 70 0 2 -120z m68 -46 c0 -128 -3 -165 -12 -162 -10 4 -14 48 -16 166
-2 140 0 162 13 162 13 0 15 -24 15 -166z m2320 -36 l25 -3 3 -192 2 -193 -45
0 -45 0 0 212 c0 200 1 210 18 195 9 -8 28 -17 42 -19z m2408 -198 c-5 -252
-4 -247 -71 -282 -22 -11 -67 -46 -101 -79 -34 -32 -64 -59 -69 -59 -4 0 -6
77 -5 172 l3 172 73 17 c45 10 82 25 97 39 24 22 25 29 25 137 l0 113 26 0 27
0 -5 -230z m2678 -572 c-4 -436 -8 -809 -9 -828 l-2 -35 -80 -8 c-44 -4 -135
-10 -202 -13 l-123 -6 0 206 c0 113 1 206 3 206 1 0 56 5 123 9 132 10 189 28
203 63 5 13 15 221 21 463 9 390 24 685 35 723 3 6 12 12 21 12 15 0 16 -60
10 -792z m-4973 660 c10 -167 8 -581 -2 -597 -8 -12 -16 -10 -50 13 -22 16
-45 34 -50 40 -5 6 -13 58 -17 114 l-7 102 32 11 c19 7 36 22 42 36 5 13 9
107 9 209 0 172 1 184 18 184 17 0 20 -12 25 -112z m113 98 c1 0 3 -167 5
-371 l4 -370 -40 -3 -40 -3 1 373 c1 205 2 377 3 381 1 7 60 1 67 -7z m142
-74 c3 -66 0 -76 -22 -103 -47 -55 -60 -155 -26 -189 11 -11 24 -20 29 -20 11
0 23 -429 13 -504 -4 -33 -12 -61 -19 -63 -6 -2 -22 21 -36 51 -14 31 -37 67
-52 80 l-25 24 26 17 26 17 -7 384 -8 385 49 -3 49 -3 3 -73z m170 11 l3 -63
-48 0 c-26 0 -58 -3 -70 -6 -22 -6 -23 -4 -23 58 0 36 3 67 6 70 3 3 33 5 67
5 l62 -2 3 -62z m127 2 l0 -60 -42 -3 -43 -3 0 59 c0 32 3 62 7 66 4 4 23 6
43 4 l35 -3 0 -60z m614 -84 c1 -52 -1 -92 -3 -90 -2 2 -6 54 -9 114 -3 63 -2
101 3 90 5 -11 9 -62 9 -114z m-2378 59 l89 0 0 -225 c0 -213 -1 -225 -19
-225 -10 0 -24 -6 -30 -14 -7 -8 -28 -17 -49 -20 -20 -4 -49 -9 -63 -12 l-27
-5 -6 98 c-16 228 -24 398 -19 406 3 5 12 6 20 3 8 -3 55 -6 104 -6z m290 -30
c4 -14 7 -111 8 -217 l1 -191 -32 -11 c-18 -5 -57 -13 -85 -16 l-53 -7 0 236
0 237 77 -3 c73 -3 78 -4 84 -28z m173 -72 c3 -50 6 -111 6 -136 l0 -45 -42 7
c-24 4 -48 13 -54 21 -14 18 -26 237 -14 245 5 3 28 4 53 2 l44 -4 7 -90z
m144 -45 l3 -133 -50 0 -49 0 -6 83 c-6 78 -9 163 -7 180 1 4 25 7 54 5 l52
-3 3 -132z m-1828 -138 l0 -225 -40 0 -40 0 0 225 0 225 40 0 40 0 0 -225z
m-120 -6 l0 -221 -31 6 c-17 3 -51 6 -75 6 l-44 0 2 197 3 197 55 18 c98 30
90 48 90 -203z m3110 182 c0 -38 26 -97 45 -105 9 -3 52 -6 94 -6 43 0 81 -3
84 -6 7 -8 -11 -46 -27 -56 -17 -12 -335 -9 -423 3 -99 14 -107 20 -99 83 5
49 23 78 61 99 18 11 239 27 258 19 4 -2 7 -16 7 -31z m-3297 -223 c-4 -172
-7 -196 -24 -218 -35 -45 -52 -94 -57 -160 l-5 -64 46 -41 46 -40 3 -443 3
-442 -57 0 -56 0 -6 178 c-3 97 -9 432 -12 744 l-6 568 55 55 c31 30 60 55 65
55 5 0 7 -80 5 -192z m4749 -59 l2 -207 -51 -103 c-28 -57 -56 -122 -63 -144
-7 -22 -16 -45 -21 -51 -25 -32 -49 -142 -49 -225 0 -78 -2 -89 -17 -89 -17 0
-18 30 -17 495 0 272 4 498 7 501 6 7 184 33 199 30 5 0 9 -94 10 -207z m957
-266 c-1 -258 -4 -481 -8 -498 l-6 -30 -140 0 -140 0 0 480 0 480 40 7 c33 6
155 20 238 27 16 1 17 -27 16 -466z m226 458 l30 -6 12 -130 c6 -72 15 -291
19 -487 l7 -357 -132 -3 c-73 -2 -134 -2 -136 0 -2 2 1 18 6 35 5 18 9 237 9
488 0 251 3 459 7 462 8 9 137 7 178 -2z m-2255 -356 l0 -336 -62 3 -63 3 4
325 c2 179 5 328 8 333 2 4 29 7 59 7 l54 0 0 -335z m243 180 c4 -82 11 -295
15 -473 l7 -322 -50 1 c-27 0 -77 8 -110 17 l-60 17 -3 458 -2 458 97 -3 98
-3 8 -150z m309 -192 c2 -192 3 -409 3 -483 l0 -135 -115 3 c-63 2 -119 8
-124 13 -6 5 -12 201 -14 479 l-5 470 127 0 126 0 2 -347z m266 -23 c1 -201
-1 -419 -5 -485 l-8 -120 -104 0 -104 0 -5 488 -4 488 113 -3 114 -3 3 -365z
m1604 326 c123 -62 123 -61 139 -261 17 -212 18 -1033 0 -1650 -6 -236 -14
-550 -18 -697 l-6 -268 -98 0 -98 0 -7 57 c-4 31 -2 250 5 487 6 237 11 517
12 621 l0 190 47 30 c70 45 84 77 90 205 3 69 0 126 -7 157 -14 53 -62 134
-102 173 l-27 25 -6 395 c-3 217 -9 437 -12 489 -4 53 -3 92 2 90 5 -3 44 -22
86 -43z m-722 -446 l0 -480 -32 0 c-37 0 -183 -25 -210 -35 -17 -7 -18 18 -18
442 l0 450 23 20 c12 11 31 24 42 28 56 23 153 53 173 54 l22 1 0 -480z
m-3456 400 c20 0 24 -6 30 -50 4 -28 4 -55 1 -60 -3 -6 -24 -10 -46 -10 l-39
0 0 76 c0 69 1 74 16 60 8 -9 26 -16 38 -16z m132 -10 c22 0 24 -4 24 -50 l0
-50 -45 0 -45 0 0 48 c0 53 6 66 28 57 7 -3 25 -5 38 -5z m1062 0 l42 0 0
-274 c0 -176 -4 -277 -10 -281 -6 -4 -35 -3 -65 0 l-55 7 0 280 0 280 23 -6
c12 -3 41 -6 65 -6z m-918 -53 l0 -53 -35 4 c-34 4 -35 6 -35 46 0 50 4 56 42
56 27 0 28 -1 28 -53z m1135 -227 l0 -275 -69 0 -70 0 3 270 c1 148 5 273 7
277 3 4 33 7 67 5 l62 -2 0 -275z m183 93 c-1 -104 -4 -230 -6 -280 l-3 -93
-65 0 -64 0 0 273 c0 151 3 277 7 280 3 4 35 7 70 7 l64 0 -3 -187z m-1208
134 c0 -53 -2 -55 -40 -49 -27 4 -30 8 -30 41 0 45 5 51 42 51 26 0 28 -2 28
-43z m123 -14 c2 -32 3 -59 2 -61 -2 -2 -21 2 -44 9 -41 12 -41 13 -41 61 l0
48 39 0 39 0 5 -57z m157 -41 l0 -99 -51 25 c-57 29 -69 49 -69 123 l0 49 60
0 60 0 0 -98z m2490 -384 l-1 -453 -55 -45 c-50 -41 -56 -50 -79 -126 -16 -54
-25 -106 -25 -152 l0 -70 52 -50 c29 -28 66 -59 84 -68 l31 -17 7 -336 c4
-185 13 -466 21 -626 8 -159 15 -309 15 -332 l0 -43 -128 0 -129 0 -7 343 c-4
188 -15 446 -24 572 -14 186 -17 368 -17 945 l0 715 62 61 c53 52 161 129 186
133 4 1 7 -203 7 -451z m1266 300 c39 -67 47 -89 60 -180 24 -173 33 -334 45
-788 12 -484 23 -857 37 -1305 5 -165 8 -311 8 -325 l-1 -25 -118 0 -119 0 2
195 c0 107 5 348 10 535 29 1102 33 1403 21 1616 -24 422 -24 397 -6 374 9
-11 36 -55 61 -97z m-4285 -65 c14 -80 21 -694 8 -707 -7 -7 -409 -30 -415
-24 -2 2 -6 176 -10 386 l-7 382 49 1 c27 0 85 9 129 18 44 10 114 19 156 20
l76 1 14 -77z m354 49 l70 -27 7 -90 c4 -50 12 -137 18 -195 5 -58 10 -178 10
-267 l0 -163 -184 0 -184 0 -6 338 c-3 185 -8 358 -12 385 l-6 47 108 0 c94
-1 118 -4 179 -28z m-2148 -22 l43 0 1 -77 c0 -107 13 -174 35 -190 13 -9 61
-13 181 -13 99 0 163 -4 163 -10 0 -5 -11 -17 -26 -26 -22 -15 -44 -16 -167
-10 -348 16 -490 46 -532 110 -27 40 -4 136 44 189 l36 40 89 -7 c49 -3 109
-6 133 -6z m1298 -122 c3 -68 5 -242 3 -388 l-3 -265 -60 -8 c-62 -7 -343 -12
-349 -6 -2 2 -5 159 -7 349 l-4 345 57 22 c31 13 101 30 155 38 54 9 118 20
143 24 25 5 48 9 51 10 4 0 10 -54 14 -121z m3229 -108 c3 -82 1 -329 -5 -547
-11 -386 -9 -555 11 -753 5 -52 14 -243 19 -425 6 -181 13 -396 15 -477 l5
-148 -108 0 -108 0 -6 608 c-4 334 -7 808 -7 1053 0 412 1 450 19 500 41 118
140 337 152 338 3 1 9 -66 13 -149z m-3724 -259 l0 -328 -52 -39 c-99 -73
-136 -179 -145 -409 l-6 -150 27 -32 c15 -18 41 -35 64 -40 28 -7 37 -14 35
-29 -14 -133 -23 -270 -23 -365 l0 -117 -72 -7 c-40 -3 -97 -10 -127 -16 -69
-11 -94 -12 -87 0 4 5 10 279 16 608 9 621 8 600 55 800 8 33 40 110 70 170
48 92 68 121 143 194 48 47 90 87 95 88 4 0 7 -147 7 -328z m-266 194 c3 -9
-11 -48 -32 -88 l-37 -72 -3 74 c-2 41 -1 80 2 88 7 18 62 17 70 -2z m-663
-41 c35 -6 37 -8 43 -58 6 -56 8 -800 2 -807 -2 -2 -31 -2 -64 -1 l-60 4 -6
46 c-3 26 -8 224 -12 441 l-7 394 34 -7 c19 -3 50 -9 70 -12z m229 -445 l0
-430 -72 3 -73 3 -3 420 c-1 231 -1 424 2 430 2 6 33 9 75 7 l71 -4 0 -429z
m319 309 c-5 -114 -15 -183 -39 -283 -12 -46 -18 -158 -19 -332 l-1 -123 -27
0 -26 0 7 173 c4 94 10 285 12 422 l5 250 30 2 c17 1 33 4 36 7 23 23 28 -1
22 -116z m2390 105 c10 -8 10 -352 1 -358 -6 -3 -10 2 -10 13 0 37 -50 220
-75 273 -38 83 -36 91 28 83 28 -4 54 -8 56 -11z m-2526 -293 c0 -162 -3 -313
-6 -335 -3 -22 -6 -79 -6 -127 l-1 -88 -65 0 -65 0 0 425 0 426 73 -3 72 -3
-2 -295z m2685 205 c2 -49 0 -136 -3 -193 l-7 -103 -50 3 -51 3 -1 188 c-1
103 0 190 3 193 3 3 28 4 56 2 l50 -3 3 -90z m155 -83 c0 -95 -4 -183 -7 -195
-4 -19 -12 -22 -58 -22 l-53 0 -3 185 c-1 101 0 190 3 198 3 9 21 12 62 10
l58 -3 -2 -173z m141 121 c-27 -27 -56 -66 -65 -88 -9 -22 -21 -51 -27 -65 -8
-20 -11 0 -11 88 l-1 112 77 0 76 0 -49 -47z m146 -73 c0 -106 1 -110 26 -126
30 -20 19 -37 -22 -32 l-29 3 -5 125 c-3 69 -4 128 -2 133 2 4 10 7 18 7 11 0
14 -21 14 -110z m-68 -40 c3 -103 3 -105 -24 -132 -16 -15 -28 -37 -28 -49 0
-12 -2 -20 -5 -17 -3 3 -6 65 -7 137 0 125 1 134 23 157 12 13 26 21 30 17 4
-5 9 -55 11 -113z m-107 -412 c-4 -227 -11 -423 -16 -435 -6 -15 -14 -20 -28
-16 -19 5 -21 13 -21 92 1 167 30 687 41 729 27 99 31 37 24 -370z m3755 137
l0 -205 -165 0 -165 0 2 187 3 188 30 1 c71 5 270 26 274 30 17 17 21 -21 21
-201z m-662 159 c9 -2 12 -47 12 -180 l0 -177 -46 7 c-26 3 -53 6 -60 6 -11 0
-14 34 -14 173 0 96 3 176 6 179 5 6 76 0 102 -8z m293 -179 l0 -180 -117 2
c-64 1 -119 5 -123 8 -3 4 -7 85 -9 181 l-4 175 126 -3 127 -3 0 -180z m-2863
134 c2 -23 2 -23 -13 -5 -18 24 -20 39 -2 34 6 -3 13 -15 15 -29z m1948 20
c32 -8 54 -23 79 -52 64 -74 75 -110 75 -239 0 -133 -9 -167 -53 -201 -80 -61
-58 -58 -535 -55 -430 3 -438 3 -472 25 -19 12 -52 40 -74 61 l-38 40 4 84 c6
121 33 180 111 244 34 28 78 57 97 63 22 8 146 16 344 22 170 5 312 11 314 14
9 9 103 5 148 -6z m-1828 -151 c13 -161 14 -422 3 -523 l-6 -60 -45 0 -45 0 2
95 c2 52 8 148 14 213 7 71 9 180 5 272 l-7 155 34 0 34 0 11 -152z m345 126
c56 -5 77 -10 77 -20 0 -11 -21 -14 -102 -14 -83 0 -109 -4 -134 -19 -36 -22
-65 -78 -72 -139 -4 -39 -1 -47 32 -81 l36 -37 -49 -97 c-27 -53 -55 -119 -62
-147 -7 -27 -15 -50 -18 -50 -3 0 -6 87 -6 192 0 106 -4 246 -9 312 l-9 118
119 -6 c66 -4 154 -9 197 -12z m-540 -1 c3 -5 7 -35 8 -68 l4 -60 -129 -3
c-115 -2 -230 9 -245 23 -8 9 -1 76 10 96 9 17 24 19 179 19 93 0 171 -3 173
-7z m617 -98 c0 -19 -10 -29 -40 -45 -36 -18 -41 -19 -47 -5 -7 20 -47 37 -67
29 -24 -9 -39 -59 -27 -83 9 -16 8 -26 -5 -46 -20 -31 -31 -31 -61 -3 -15 14
-23 33 -23 55 0 37 32 108 52 116 7 3 59 6 116 6 l102 1 0 -25z m-1155 1 c7
-2 8 -35 4 -92 -4 -49 -8 -124 -8 -166 l-1 -77 -117 5 c-159 7 -183 11 -183
32 0 9 -3 26 -6 37 -4 15 2 25 20 34 32 17 49 63 36 97 -6 14 -25 31 -45 40
-32 13 -35 18 -35 57 l0 43 163 -4 c89 -2 167 -5 172 -6z m-756 -24 c14 -10
34 -33 44 -50 32 -55 58 -206 64 -378 6 -174 -5 -221 -26 -106 -29 161 -64
283 -100 344 -30 52 -50 72 -116 116 -46 31 -107 61 -147 73 -37 12 -68 22
-68 22 0 1 73 1 162 0 142 -1 164 -4 187 -21z m1378 -167 c-8 -214 -25 -259
-28 -75 -4 153 -3 180 7 234 6 33 8 36 17 21 6 -12 8 -77 4 -180z m-1886 155
c34 -10 37 -13 43 -63 3 -28 6 -149 6 -268 l0 -216 -105 -2 -105 -2 0 133 c0
73 -3 197 -7 275 l-6 142 34 4 c65 8 104 7 140 -3z m1446 -20 c14 0 29 -528
15 -542 -5 -5 -25 -8 -43 -6 l-34 3 1 214 c1 118 5 248 9 288 6 70 8 73 24 59
10 -9 22 -16 28 -16z m-1673 -250 c4 -143 4 -265 1 -270 -3 -6 -51 -10 -106
-10 l-99 0 0 264 0 265 53 4 c28 2 73 4 98 5 l46 2 7 -260z m-484 230 c0 -3
-28 -20 -63 -39 -180 -97 -299 -247 -347 -436 -19 -73 -31 -86 -69 -65 -25 13
-27 68 -10 232 8 81 17 118 43 174 35 73 67 103 140 128 31 11 306 16 306 6z
m962 -22 c45 -19 48 -23 57 -72 21 -110 23 -233 15 -1177 l-7 -976 -71 -12
c-39 -7 -83 -14 -97 -17 l-27 -5 -1 645 -2 644 58 31 c84 45 113 93 113 185
l0 70 -90 89 -90 89 -2 270 -3 270 50 -7 c27 -3 71 -15 97 -27z m1338 15 c7
-7 16 -294 12 -418 l-3 -106 -42 3 -42 3 -6 135 c-9 183 -10 385 -3 393 6 6
75 -2 84 -10z m-2080 -252 l0 -259 -22 -6 c-13 -3 -32 -6 -44 -6 -11 0 -43
-11 -70 -25 -27 -14 -52 -25 -57 -25 -4 0 -6 118 -5 263 l3 262 80 27 c128 42
115 67 115 -231z m2218 -8 l2 -263 -45 0 -45 0 0 198 c0 108 -3 228 -7 265
l-6 68 49 -3 49 -3 3 -262z m96 105 c3 -90 9 -209 13 -265 l6 -103 -37 0 c-20
0 -36 1 -37 3 -4 21 -10 500 -6 511 4 9 17 16 30 16 l24 0 7 -162z m596 -107
l0 -269 -46 -38 c-65 -52 -82 -97 -90 -233 l-7 -112 55 -54 c31 -29 66 -55 79
-57 l24 -3 3 -352 2 -352 38 -3 c37 -3 37 -3 44 -58 9 -79 9 -358 0 -364 -4
-2 -36 -2 -70 1 l-62 6 0 306 c0 306 -8 410 -45 610 -17 95 -59 217 -82 243
-17 19 -17 4 -14 577 l1 314 36 34 c37 34 99 72 122 73 9 0 12 -60 12 -269z
m-3170 -107 l0 -275 -25 -33 c-37 -49 -55 -100 -55 -156 0 -58 11 -86 45 -115
21 -18 24 -30 26 -115 3 -107 6 -106 -83 -74 -22 8 -49 14 -59 14 -18 0 -19
17 -19 455 l0 456 28 26 c29 28 122 92 135 92 4 1 7 -123 7 -275z m1157 254
c36 -41 61 -92 76 -158 8 -36 22 -92 31 -125 30 -116 47 -321 57 -685 5 -201
14 -412 19 -470 16 -176 31 -500 28 -585 l-3 -80 -115 -6 c-63 -3 -119 -4
-124 -1 -4 2 -4 245 0 541 10 681 11 1447 2 1529 -8 67 -3 75 29 40z m5309
-95 c-3 -42 -6 -102 -6 -135 0 -58 -1 -59 -31 -65 -17 -3 -49 -23 -71 -44
l-40 -38 7 167 c4 92 10 170 14 174 7 7 49 14 100 17 l34 1 -7 -77z m-166
-339 c-6 -214 -12 -490 -13 -614 l-2 -225 -27 -3 -28 -3 0 484 c0 266 -3 545
-7 620 l-6 136 39 3 c21 2 42 1 47 -3 4 -3 3 -180 -3 -395z m-1147 389 c3 -5
8 -70 12 -145 l7 -138 -25 0 c-50 0 -57 20 -57 161 l0 129 29 0 c17 0 32 -3
34 -7z m-2187 -365 c-4 -199 -9 -364 -12 -367 -3 -3 -39 29 -80 70 l-75 75 11
134 c9 112 17 152 46 235 39 107 93 215 108 215 6 0 6 -141 2 -362z m2438 355
l107 -6 -3 -140 -3 -140 -130 2 c-71 1 -130 3 -131 4 -1 1 -4 66 -7 145 l-7
142 34 0 c18 0 81 -3 140 -7z m743 -90 c4 -54 8 -330 8 -613 l0 -515 -35 -3
c-19 -2 -64 -12 -100 -24 -36 -12 -66 -21 -67 -20 -1 1 -4 264 -8 585 -3 320
-7 602 -8 627 l-2 45 90 6 c50 3 95 6 102 7 7 1 14 -31 20 -95z m-293 78 c6
-9 26 -384 22 -389 -2 -1 -26 13 -54 32 -48 32 -108 48 -212 59 l-25 2 -3 140
c-1 76 0 145 2 152 4 10 38 13 135 13 71 0 132 -4 135 -9z m-4046 -522 c2
-398 -2 -494 -23 -494 -12 0 -19 151 -30 598 l-8 319 29 -4 29 -3 3 -416z
m152 -39 l0 -460 -57 0 -58 0 2 453 c1 248 2 455 2 460 1 4 26 7 56 7 l55 0 0
-460z m-2188 32 l-2 -410 -72 -4 -71 -3 7 206 c6 200 33 398 67 486 25 66 62
142 68 139 3 -2 5 -189 3 -414z m-1152 360 c43 -7 45 -8 45 -42 l0 -35 -112
-3 -113 -3 0 46 0 45 68 -1 c37 0 87 -4 112 -7z m278 -17 c6 -3 12 -18 12 -35
l0 -31 -102 3 c-99 3 -103 4 -106 26 -7 45 0 49 95 45 48 -3 94 -6 101 -8z
m242 -41 c0 -33 -2 -36 -22 -30 -13 3 -56 6 -95 6 l-73 0 0 30 0 30 95 0 95 0
0 -36z m90 -15 c0 -43 -3 -50 -16 -45 -9 3 -20 6 -25 6 -5 0 -9 20 -9 45 0 41
2 45 25 45 23 0 25 -3 25 -51z m4746 37 c1 0 5 -297 9 -658 l7 -658 -115 0
-115 0 -6 238 c-4 130 -9 251 -11 267 -3 17 -8 208 -11 426 l-7 395 124 -4
c68 -2 125 -5 125 -6z m326 -551 c2 -305 3 -603 3 -662 l0 -108 -133 -3 c-101
-2 -133 0 -137 10 -2 7 -6 144 -9 303 -3 160 -8 446 -12 637 -4 191 -4 354 -1
362 5 14 28 16 147 16 l140 0 2 -555z m295 263 c-4 -161 -10 -428 -12 -593 -3
-165 -8 -333 -11 -373 l-6 -73 -111 3 -112 3 -3 663 -2 662 132 0 131 0 -6
-292z m898 137 c44 -7 109 -17 145 -20 77 -8 142 -34 164 -67 24 -37 46 -134
57 -260 9 -109 8 -120 -10 -156 -24 -48 -80 -98 -140 -126 -43 -20 -63 -21
-316 -21 l-270 0 -12 170 c-11 168 -17 488 -9 496 10 10 318 -3 391 -16z
m-3470 -5 c3 -5 36 -10 72 -10 l66 0 -7 -102 c-3 -57 -11 -206 -16 -332 -6
-126 -12 -232 -15 -236 -4 -6 -127 6 -129 13 -1 1 0 154 2 340 2 308 7 360 27
327z m-3581 -52 c12 -105 10 -283 -2 -282 -50 4 -47 -8 -47 169 0 162 0 165
21 165 19 0 23 -7 28 -52z m2365 20 c17 -7 62 -42 101 -77 l70 -63 0 -55 c0
-68 -18 -97 -84 -130 -95 -49 -140 -55 -456 -60 -322 -6 -350 -2 -418 47 l-42
30 4 60 c3 54 8 66 48 118 51 64 127 116 190 127 54 10 412 24 494 19 34 -2
76 -9 93 -16z m1536 -325 c0 -188 -3 -344 -7 -348 -3 -4 -43 -3 -89 1 l-82 7
6 201 c4 111 12 265 19 344 l12 143 71 -3 70 -3 0 -342z m193 337 l55 0 -7
-162 c-12 -271 -32 -458 -56 -515 -9 -21 -17 -23 -77 -23 l-68 0 2 352 c1 194
2 355 2 357 1 2 22 1 47 -3 26 -3 72 -6 102 -6z m210 -6 c20 -6 22 -12 22 -80
0 -87 -2 -87 -83 -43 -56 30 -57 32 -57 73 0 24 3 46 7 49 8 9 80 9 111 1z
m-4193 -61 l35 -36 0 -383 0 -383 -37 -31 -38 -30 -8 176 c-8 173 -8 177 13
196 19 18 22 29 18 92 -2 52 -9 79 -24 101 -19 27 -22 49 -27 192 -6 184 -6
183 68 106z m4630 -310 c7 -40 6 -43 -14 -43 -11 0 -40 17 -62 37 l-42 38 6
105 c6 121 15 151 60 193 l32 30 6 -159 c3 -87 10 -178 14 -201z m3203 226
l42 -11 0 -132 c0 -72 -5 -227 -12 -344 l-12 -212 -35 6 c-20 3 -42 7 -48 9
-10 3 -13 68 -13 278 0 306 7 430 24 423 6 -3 30 -10 54 -17z m-3684 -273 c3
-138 9 -273 13 -300 6 -46 5 -49 -13 -41 -10 5 -89 10 -174 12 -102 2 -156 7
-159 14 -2 8 24 10 87 8 53 -2 95 0 101 6 13 14 48 258 57 395 6 108 12 182
13 187 1 2 16 -5 34 -13 l34 -16 7 -252z m-4032 161 c15 -69 38 -317 38 -416
0 -93 -1 -98 -28 -124 -15 -15 -33 -27 -40 -27 -9 0 -12 81 -12 333 1 312 2
330 17 302 9 -16 20 -47 25 -68z m550 -189 c3 -145 0 -158 -34 -158 -16 0 -18
13 -18 144 0 145 2 153 37 155 9 1 13 -39 15 -141z m-92 -27 c0 -84 -4 -142
-10 -146 -6 -4 -41 -15 -78 -25 -37 -10 -75 -22 -84 -25 -17 -7 -18 5 -18 152
l0 160 78 10 c42 5 85 11 95 11 15 2 17 -11 17 -137z m-230 -49 l0 -167 -75
-37 c-41 -20 -76 -34 -78 -30 -2 4 -4 57 -5 117 -1 61 -4 149 -8 198 l-6 87
86 0 86 0 0 -168z m1270 70 l75 -7 2 -55 c7 -182 9 -290 4 -290 -3 0 -17 16
-29 34 -25 37 -116 126 -144 142 -14 8 -19 29 -25 103 l-6 94 24 -7 c13 -5 58
-11 99 -14z m642 -614 c2 -348 2 -635 1 -637 -1 -2 -46 -4 -100 -5 l-98 -1 -2
205 c-3 205 -22 973 -26 1020 -2 24 1 25 83 36 47 6 97 12 112 13 l28 1 2
-632z m-286 572 c18 -195 30 -1220 15 -1220 -13 0 -21 27 -21 73 0 55 -25 208
-45 275 -9 30 -23 88 -31 130 -13 67 -44 157 -105 307 -18 43 -21 70 -19 185
0 75 -4 166 -10 203 -6 37 -8 72 -4 78 3 6 50 8 111 7 l106 -3 3 -35z m5349
-318 l-7 -93 -56 -41 c-130 -94 -155 -130 -207 -288 -31 -95 -39 -137 -47
-245 -21 -307 -26 -315 -20 -35 4 157 7 403 7 547 l-1 261 29 6 c16 3 44 6 62
6 48 0 133 35 190 79 l50 38 3 -71 c2 -39 0 -113 -3 -164z m-7412 196 c3 -18
7 -105 9 -193 3 -153 2 -162 -21 -198 -38 -61 -38 -61 -41 218 -2 175 0 190
17 196 29 12 30 11 36 -23z m1030 -45 c4 -38 7 -237 7 -445 l0 -376 -97 -6
c-54 -4 -125 -9 -159 -12 l-60 -5 -12 318 c-7 175 -12 368 -12 430 l0 112 53
10 c63 12 224 38 253 40 19 1 22 -6 27 -66z m344 -354 l6 -417 -49 -5 c-27 -3
-93 -13 -147 -23 -53 -9 -99 -15 -101 -13 -2 2 -6 201 -9 442 l-6 438 150 -3
151 -3 5 -416z m-712 124 c5 -126 9 -318 9 -428 l1 -200 -40 -7 c-22 -5 -68
-12 -102 -18 -34 -5 -80 -16 -101 -23 l-39 -14 -6 165 c-4 91 -7 276 -7 412
l0 248 34 16 c44 21 206 75 227 75 14 1 17 -28 24 -226z m2750 187 c0 -23 -4
-25 -45 -25 -42 0 -45 2 -48 28 -3 28 -3 28 45 25 44 -3 48 -5 48 -28z m195
11 c47 -5 55 -9 58 -29 3 -23 3 -23 -105 -20 -95 3 -108 5 -111 21 -8 40 5 50
56 42 26 -4 72 -10 102 -14z m263 -40 c8 -8 -14 -11 -76 -11 -74 0 -87 2 -87
16 0 15 10 16 76 11 42 -3 81 -10 87 -16z m-58 -49 c432 -7 430 -7 483 -56 43
-38 55 -76 60 -182 l5 -102 -54 -19 c-141 -52 -172 -55 -556 -50 -197 2 -371
8 -388 14 -27 8 -30 14 -33 57 l-3 48 33 -6 c41 -7 96 7 114 31 17 22 18 93 2
128 -14 30 -43 39 -106 32 l-47 -5 1 56 c1 31 2 61 2 66 1 4 19 5 40 1 20 -3
222 -9 447 -13z m3840 -164 c3 -51 5 -183 3 -293 l-3 -200 -83 -3 -83 -3 7
268 c4 147 8 269 9 271 3 4 127 50 137 51 3 1 9 -41 13 -91z m189 82 l26 -10
0 -269 c0 -310 8 -288 -100 -292 l-65 -3 -6 145 c-8 181 -10 424 -4 430 9 10
124 9 149 -1z m141 -33 l60 -22 3 -215 c2 -118 0 -234 -3 -257 l-6 -43 -67 0
-67 0 2 277 c1 153 3 279 3 281 0 5 17 0 75 -21z m-2875 -365 c0 -49 3 -144 7
-210 l6 -122 -136 0 -136 0 -3 206 c-2 113 -1 208 1 210 2 2 62 4 133 4 l128
0 0 -88z m262 -104 c2 -106 8 -201 12 -210 8 -17 -1 -18 -107 -18 -110 0 -115
1 -121 23 -3 12 -6 106 -6 210 l0 187 109 0 109 0 4 -192z m226 100 c6 -51 14
-146 18 -210 l6 -118 -100 0 -99 0 -7 53 c-3 28 -6 123 -6 210 l0 157 88 0 88
0 12 -92z m90 -115 c-3 -181 -5 -208 -19 -211 -14 -2 -17 17 -22 145 -4 81 -9
176 -13 211 l-7 62 32 0 31 0 -2 -207z m-2294 151 c14 -13 16 -49 16 -240 l0
-224 -35 0 -35 0 0 240 c0 230 1 240 19 240 11 0 27 -7 35 -16z m257 -12 c4
-4 9 -105 11 -224 l5 -217 -104 -3 c-58 -2 -107 0 -109 4 -6 10 -18 424 -12
439 4 11 27 13 104 11 55 -2 102 -7 105 -10z m262 -104 c4 -62 7 -177 7 -256
0 -133 -1 -142 -17 -134 -10 5 -56 18 -103 27 -47 10 -88 21 -92 24 -3 3 -8
106 -10 229 l-3 222 106 0 106 0 6 -112z m825 -375 l3 -93 -31 0 -30 0 0 96 0
95 28 -3 27 -3 3 -92z m148 87 l74 0 0 -90 0 -91 -92 3 -93 3 -3 79 c-3 90 1
111 24 102 9 -3 49 -6 90 -6z m324 -90 l0 -90 -110 0 -110 0 0 90 0 90 110 0
110 0 0 -90z m290 0 l0 -90 -127 0 -128 0 3 90 3 90 125 0 124 0 0 -90z m190
5 l0 -85 -75 0 -75 0 0 85 0 85 75 0 75 0 0 -85z"/>
<path d="M7970 7905 c-22 -26 -8 -50 30 -50 25 0 36 5 38 18 5 23 -15 47 -38
47 -10 0 -23 -7 -30 -15z"/>
<path d="M5010 7770 c-42 -42 -14 -120 43 -120 18 0 37 4 43 8 17 11 34 48 34
76 0 51 -81 75 -120 36z"/>
<path d="M4618 7758 c-30 -10 -45 -57 -34 -103 5 -21 12 -25 45 -25 32 0 44 6
65 31 30 35 28 62 -6 92 -23 19 -31 20 -70 5z"/>
<path d="M3532 7680 c-24 -23 -28 -50 -10 -68 18 -18 42 -15 62 7 22 24 18 49
-10 67 -18 12 -23 11 -42 -6z"/>
<path d="M3065 7419 c-12 -19 4 -59 24 -59 29 0 45 25 31 49 -11 22 -44 28
-55 10z"/>
<path d="M2874 7405 c-9 -23 3 -45 24 -45 25 0 44 23 36 44 -8 20 -53 21 -60
1z"/>
<path d="M7225 7235 c-53 -52 -20 -136 60 -151 31 -6 40 -3 66 22 32 30 39 85
16 115 -34 45 -105 52 -142 14z"/>
<path d="M778 7099 c-21 -12 -23 -42 -4 -58 10 -9 20 -9 40 0 28 13 34 37 14
57 -14 14 -27 15 -50 1z"/>
<path d="M530 7051 c0 -36 22 -46 51 -22 30 24 19 51 -21 51 -26 0 -30 -3 -30
-29z"/>
<path d="M5758 6629 c-36 -21 -6 -109 37 -109 35 0 57 58 39 104 -7 18 -50 21
-76 5z"/>
<path d="M4017 6480 c-37 -44 -38 -112 -2 -136 34 -22 88 -12 109 21 22 33 21
98 -2 118 -10 9 -32 19 -48 23 -26 5 -35 1 -57 -26z"/>
<path d="M2313 6120 c-34 -14 -41 -59 -13 -82 26 -21 50 -23 72 -5 23 18 28
53 11 76 -15 22 -34 25 -70 11z"/>
<path d="M2682 6115 c-38 -21 -44 -31 -37 -63 11 -51 87 -63 117 -18 16 23 8
65 -14 80 -26 19 -35 19 -66 1z"/>
<path d="M5496 5741 c-9 -10 -19 -34 -23 -54 -4 -29 -1 -40 20 -61 35 -35 99
-36 121 -4 22 31 21 107 -1 124 -27 20 -97 18 -117 -5z"/>
<path d="M6943 5213 c-19 -7 -15 -48 6 -67 15 -14 24 -15 39 -7 59 32 18 100
-45 74z"/>
<path d="M6682 5173 c-12 -22 2 -63 20 -63 26 0 59 32 56 53 -4 30 -62 37 -76
10z"/>
<path d="M3318 4993 c-20 -5 -33 -44 -24 -68 3 -9 18 -15 40 -15 30 0 37 4 42
27 11 44 -14 68 -58 56z"/>
<path d="M1265 4678 c-40 -22 -55 -51 -55 -109 0 -65 18 -89 67 -89 68 0 123
61 123 135 0 30 -5 37 -40 55 -44 22 -66 24 -95 8z"/>
<path d="M1917 4684 c-12 -13 -8 -51 8 -64 26 -22 67 3 63 38 -2 22 -9 28 -33
30 -17 2 -34 0 -38 -4z"/>
<path d="M2642 4434 c4 -37 32 -54 54 -32 25 25 10 58 -27 58 -27 0 -30 -3
-27 -26z"/>
<path d="M3342 3868 c-18 -18 -15 -62 6 -81 48 -43 117 7 89 64 -14 27 -73 39
-95 17z"/>
<path d="M352 3364 c-15 -10 -22 -25 -22 -49 0 -40 29 -65 73 -65 49 0 67 16
67 60 0 44 -26 70 -70 70 -14 0 -36 -7 -48 -16z"/>
<path d="M6056 2620 c-54 -17 -76 -47 -76 -108 0 -48 4 -58 34 -88 45 -45 84
-46 132 -1 32 29 36 37 36 88 1 77 -15 99 -82 114 -8 2 -28 -1 -44 -5z"/>
<path d="M5505 2610 c-11 -4 -31 -19 -44 -34 -28 -29 -39 -105 -22 -148 10
-27 13 -28 79 -28 59 0 73 3 96 25 21 20 26 33 26 72 0 57 -16 84 -64 107 -38
18 -42 18 -71 6z"/>
<path d="M3900 2725 c-16 -20 -6 -45 19 -45 20 0 37 32 26 50 -9 15 -31 12
-45 -5z"/>
<path d="M4090 2715 c-10 -12 -10 -18 0 -30 21 -25 54 -15 58 18 3 23 0 27
-21 27 -14 0 -30 -7 -37 -15z"/>
<path d="M7073 1830 c-43 -26 -53 -48 -53 -115 0 -100 49 -155 138 -155 58 0
84 18 101 69 23 71 7 192 -29 211 -32 17 -122 12 -157 -10z"/>
<path d="M2306 1849 c-33 -39 -33 -73 0 -106 21 -21 32 -24 61 -20 52 9 73 32
73 82 0 52 -23 75 -72 75 -28 0 -42 -7 -62 -31z"/>
<path d="M1816 1848 c-24 -33 -20 -81 9 -112 30 -33 55 -33 94 0 25 21 31 34
31 64 0 51 -21 70 -75 70 -34 0 -47 -5 -59 -22z"/>
<path d="M4026 1101 c-34 -36 -51 -104 -36 -142 6 -14 26 -35 45 -45 66 -35
132 11 142 100 6 51 -8 76 -59 102 -40 21 -61 17 -92 -15z"/>
<path d="M5885 8095 c40 -19 70 -18 85 0 11 13 4 15 -51 14 -62 -1 -63 -1 -34
-14z"/>
<path d="M6340 8100 c8 -5 29 -10 45 -10 17 0 37 5 45 10 11 7 -3 10 -45 10
-42 0 -56 -3 -45 -10z"/>
<path d="M146 4591 c-35 -37 -41 -98 -12 -130 15 -17 31 -21 78 -21 77 0 108
27 108 94 0 59 -32 86 -99 86 -39 0 -52 -5 -75 -29z"/>
<path d="M8112 2064 c-41 -29 -22 -114 26 -114 34 0 62 29 62 65 0 58 -42 81
-88 49z"/>
<path d="M623 1985 c-23 -16 -43 -70 -43 -118 0 -35 28 -85 52 -93 27 -8 82
13 109 42 20 22 24 36 24 89 0 36 -5 69 -12 76 -20 20 -105 23 -130 4z"/>
<path d="M0 1555 c0 -30 4 -55 8 -55 29 0 44 74 20 98 -22 22 -28 13 -28 -43z"/>
<path d="M7692 438 c-18 -9 -22 -18 -20 -42 6 -65 109 -76 116 -12 6 53 -41
80 -96 54z"/>
<path d="M8038 429 c-12 -6 -18 -22 -18 -45 0 -42 34 -63 78 -48 29 10 45 55
30 87 -10 19 -62 23 -90 6z"/>
<path d="M676 269 c-23 -18 -26 -27 -26 -86 l0 -66 48 6 c26 3 71 11 101 17
l53 12 -5 46 c-4 34 -12 53 -32 69 -35 30 -102 31 -139 2z"/>
<path d="M1321 266 c-28 -29 -37 -87 -21 -126 31 -75 132 -65 166 16 20 48 17
77 -11 108 -33 36 -101 37 -134 2z"/>
<path d="M735 90 c-4 -7 3 -8 22 -4 38 9 42 14 10 14 -14 0 -29 -5 -32 -10z"/>
<path d="M5585 53 c-30 -5 -65 -29 -65 -45 0 -4 38 -8 85 -8 l86 0 -16 30
c-16 31 -23 32 -90 23z"/>
<path d="M4859 20 l-24 -19 95 0 95 0 -24 19 c-32 27 -110 27 -142 0z"/>
<path d="M329 9 c-10 -6 -7 -9 14 -9 29 0 35 5 14 13 -8 3 -20 1 -28 -4z"/>
</g>
</svg>
